<?xml version="1.0" encoding="UTF-8" standalone="no"?>
<svg
   xmlns="http://www.w3.org/2000/svg"
   viewBox="0 0 650 93"
   version="1.1">
  <g
     transform="translate(0,-203.99996)"
     id="layer1">
    <path
       style="fill:#000000;stroke-width:0.26458335"
       d="m 43.956496,296.41338 c -0.40048,-0.43646 -0.51068,-0.82477 -0.41296,-1.45521 0.0733,-0.47294 0.21375,-0.8599 0.31211,-0.8599 0.0984,0 0.20469,-0.74414 0.23628,-1.65364 0.0579,-1.66769 0.26372,-3.04373 0.51973,-3.47541 0.0764,-0.12884 0.17205,-1.99429 0.21253,-4.14545 0.0405,-2.15115 0.1919,-4.13224 0.33649,-4.40243 0.21153,-0.39524 0.39265,-6.64322 0.27848,-9.6064 -0.0365,-0.9467 0.45609,-2.65648 0.89042,-3.09081 1.21911,-1.2191 3.03109,1.83168 2.77372,4.67002 -0.0959,1.05702 -0.03,1.71343 0.20558,2.04979 0.3664,0.52311 0.60094,2.69881 0.33726,3.12866 -0.0856,0.13959 -0.23337,0.96817 -0.32832,1.8413 -0.095,0.87312 -0.22953,1.88515 -0.29906,2.24896 -0.0974,0.50967 -0.0648,0.57038 0.14215,0.26458 0.22599,-0.33394 0.26921,-0.33658 0.27262,-0.0166 0.003,0.2536 0.2512,0.14345 0.74614,-0.33073 0.40814,-0.39103 0.88439,-0.71096 1.05833,-0.71096 0.17394,0 0.31625,-0.1318 0.31625,-0.29289 0,-0.16109 0.16874,-0.22814 0.37498,-0.149 0.20624,0.0791 0.44063,-0.0272 0.52086,-0.23627 0.0802,-0.2091 0.42079,-0.38017 0.75678,-0.38017 0.75814,0 1.78696,-0.69413 1.78696,-1.20563 0,-0.21003 0.1786,-0.38187 0.39688,-0.38187 0.21828,0 0.45641,0 0.52917,0 0.0728,0 0.37041,-0.23813 0.66145,-0.52917 0.29105,-0.29104 0.68947,-0.52917 0.8854,-0.52917 0.47199,0 2.0877,-0.80705 2.4219,-1.20974 0.14552,-0.17535 0.69909,-0.39475 1.23015,-0.48757 0.53107,-0.0928 1.38128,-0.45087 1.88937,-0.79566 0.50807,-0.34479 1.38325,-0.78813 1.94483,-0.98519 0.56159,-0.19706 1.17839,-0.50712 1.37069,-0.68903 0.19229,-0.1819 0.60901,-0.33255 0.92604,-0.33478 0.60075,-0.004 1.56825,-0.48918 1.10558,-0.55418 -0.14552,-0.0205 0.21167,-0.1273 0.79375,-0.23747 1.0766,-0.20377 2.5395,-0.67775 3.36985,-1.09184 0.25269,-0.12602 0.80549,-0.22912 1.22846,-0.22912 0.43951,0 0.83429,-0.17006 0.92133,-0.39688 0.0838,-0.21828 0.38055,-0.39687 0.65952,-0.39687 0.27898,0 0.84826,-0.17786 1.26508,-0.39525 0.41681,-0.21738 0.9637,-0.39597 1.2153,-0.39687 0.25159,-8e-4 1.32316,-0.28373 2.38125,-0.62852 2.10345,-0.68542 3.7776,-1.11452 5.2706,-1.3509 0.53106,-0.0841 1.33515,-0.33724 1.78687,-0.56259 0.45172,-0.22535 1.1829,-0.37179 1.62483,-0.32544 0.47678,0.05 0.89522,-0.0641 1.02901,-0.28055 0.15314,-0.24779 0.46802,-0.30833 0.98148,-0.1887 0.55571,0.12948 0.65086,0.10499 0.35913,-0.0924 -0.30051,-0.20336 -0.13991,-0.26991 0.66146,-0.27409 0.96679,-0.005 2.57605,-0.32727 3.57187,-0.7152 0.21829,-0.085 0.57547,-0.18164 0.79375,-0.21469 0.21829,-0.0331 1.40392,-0.20417 2.63474,-0.38029 1.230824,-0.17611 2.421454,-0.40858 2.645834,-0.5166 0.22439,-0.10802 0.88423,-0.22443 1.46631,-0.25867 0.58208,-0.0342 1.44296,-0.18338 1.91306,-0.33142 0.47009,-0.14804 0.97611,-0.19414 1.12448,-0.10245 0.14836,0.0917 0.26975,0.0616 0.26975,-0.0668 0,-0.23956 2.48285,-0.81916 4.3601,-1.01783 0.57904,-0.0613 1.47201,-0.23571 1.98437,-0.38763 0.51237,-0.15192 1.64595,-0.38265 2.51907,-0.51273 3.69744,-0.55088 8.23081,-1.34064 8.59896,-1.49804 0.21828,-0.0933 0.47736,-0.15371 0.57573,-0.1342 0.24832,0.0493 4.72561,-0.60836 8.68469,-1.27559 1.81901,-0.30656 4.37885,-0.65782 5.68854,-0.78057 1.30969,-0.12276 2.8575,-0.3502 3.43958,-0.50543 0.58209,-0.15523 2.96334,-0.36186 5.29167,-0.45918 2.32833,-0.0973 4.35411,-0.27126 4.50171,-0.38655 0.26638,-0.20805 2.42409,-0.42898 6.74308,-0.69042 4.56001,-0.27603 17.38385,-0.21374 20.37292,0.099 1.67349,0.17507 4.94771,0.34532 7.27604,0.37832 2.32833,0.033 5.1263,0.20005 6.21771,0.37121 1.09141,0.17117 2.16297,0.31535 2.38125,0.3204 0.21828,0.005 1.46844,0.13882 2.77812,0.29727 1.30969,0.15844 3.21469,0.35198 4.23334,0.43009 7.15996,0.54899 8.59897,0.68922 9.65729,0.9411 1.78717,0.42533 5.3013,1.05967 6.35,1.14623 2.46369,0.20335 4.65631,0.51858 4.89479,0.7037 0.14552,0.11296 0.74083,0.28414 1.32292,0.38039 0.58208,0.0963 1.29646,0.27951 1.5875,0.40723 1.21373,0.53263 3.1135,1.05262 3.8457,1.05262 0.43148,0 0.78451,0.0981 0.78451,0.21788 0,0.11984 0.68461,0.35648 1.52135,0.52589 0.83674,0.1694 2.11667,0.43076 2.84427,0.58081 0.72761,0.15005 2.75167,0.39201 4.49792,0.53768 1.74625,0.14568 3.41312,0.37127 3.70416,0.50131 0.29105,0.13005 1.95792,0.67167 3.70417,1.20361 1.74625,0.53193 3.71078,1.15034 4.36563,1.37424 0.65484,0.22389 2.3042,0.63296 3.66522,0.90903 1.36104,0.27607 2.60201,0.58069 2.75775,0.67693 0.15571,0.0962 0.70903,0.26334 1.22954,0.37133 2.10299,0.43626 7.94745,2.08192 9.80999,2.76226 1.0914,0.39865 2.19273,0.71714 2.44739,0.70775 0.25466,-0.009 0.46302,0.0805 0.46302,0.19964 0,0.18524 1.40296,0.63413 2.95836,0.94656 0.4236,0.0851 3.26234,1.37258 5.73035,2.59896 0.63145,0.31377 1.42481,0.8948 1.76302,1.29118 0.33825,0.39637 1.58544,1.22348 2.77157,1.83801 1.77069,0.9174 2.18313,1.25004 2.30494,1.859 0.18068,0.90353 0.3501,0.92158 1.10524,0.11776 l 0.58614,-0.62392 -0.70028,-0.45883 c -0.38515,-0.25236 -1.07463,-0.81814 -1.5322,-1.25728 -0.45757,-0.43914 -1.12958,-1.05583 -1.49339,-1.37043 -0.3638,-0.3146 -1.38324,-1.40283 -2.26541,-2.41829 -2.91926,-3.36028 -3.15032,-3.89913 -2.34217,-5.46189 l 0.41947,-0.8112 0.57271,0.82139 c 0.31499,0.45176 0.71033,0.77122 0.87855,0.70989 0.32925,-0.12002 1.14935,0.65208 1.14935,1.08206 0,0.50703 6.58003,6.95505 8.57092,8.39896 0.45325,0.32873 0.6895,0.74825 0.6895,1.22437 0,0.79765 -0.32364,1.15262 -1.32292,1.45099 -0.3638,0.10863 -0.87556,0.42204 -1.13723,0.69648 -0.59015,0.61892 -3.11467,1.90792 -4.61745,2.35763 -0.61847,0.18507 -1.12448,0.49625 -1.12448,0.69149 0,0.28373 0.95173,0.355 4.74085,0.355 2.60747,0 4.92919,0.0723 5.15938,0.1606 0.65066,0.24968 0.51027,-0.5643 -0.17592,-1.01991 -0.55052,-0.36555 -0.59037,-0.57018 -0.53973,-2.77185 0.057,-2.47596 0.17971,-3.48105 0.63426,-5.19397 0.14886,-0.56095 0.21103,-1.17531 0.13814,-1.36523 -0.17724,-0.46194 0.35968,-2.26226 0.84712,-2.84037 0.58121,-0.68931 0.98782,-0.56819 1.60517,0.47814 0.60566,1.02649 0.75668,2.12494 0.24905,1.81121 -0.21796,-0.13471 -0.2487,-0.006 -0.10662,0.4474 0.26577,0.84759 0.26635,0.92256 0.0373,4.73773 -0.17417,2.90128 -0.152,3.24549 0.18066,2.80385 0.20857,-0.2769 0.49512,-0.43182 0.63675,-0.34428 0.2753,0.17014 0.94046,-0.48481 1.21258,-1.19398 0.10774,-0.28076 0.35521,-0.38111 0.71065,-0.28815 0.3534,0.0924 0.54679,0.0153 0.5494,-0.21898 0.008,-0.7214 0.45511,-1.14595 0.85614,-0.81311 0.29615,0.24577 0.48782,0.1507 0.94623,-0.46932 0.31615,-0.42764 0.58359,-0.93117 0.59431,-1.11896 0.0308,-0.53993 2.5836,-2.58992 3.23146,-2.59498 0.32203,-0.002 0.8659,-0.30017 1.20862,-0.66146 0.34269,-0.36128 0.79391,-0.65688 1.00272,-0.65688 0.20881,0 0.85524,-0.24263 1.4365,-0.53917 0.58129,-0.29655 1.17186,-0.46812 1.31239,-0.38126 0.14052,0.0868 0.2555,0.0455 0.2555,-0.0918 0,-0.33053 2.60797,-1.17556 3.07496,-0.99635 0.20056,0.077 0.36463,0.0341 0.36463,-0.0953 0,-0.12939 0.3869,-0.32023 0.85981,-0.4241 0.47289,-0.10386 1.3361,-0.39889 1.91823,-0.65562 0.58211,-0.25672 2.30857,-0.85091 3.83654,-1.32041 1.52797,-0.46951 3.13531,-1.01456 3.57188,-1.21123 0.43656,-0.19666 1.15599,-0.34297 1.59871,-0.32514 0.44273,0.0178 1.05842,-0.10319 1.36816,-0.26896 0.57595,-0.30824 2.55196,-0.66063 6.27473,-1.119 1.15382,-0.14206 2.23774,-0.37436 2.40866,-0.51622 0.17095,-0.14187 0.59611,-0.25223 0.94485,-0.24525 0.34873,0.007 1.46749,-0.15874 2.48614,-0.36825 1.01864,-0.20951 2.4635,-0.50709 3.21079,-0.66129 0.74729,-0.15421 2.77136,-0.3492 4.49792,-0.43332 1.72657,-0.0841 4.03217,-0.21095 5.12358,-0.28185 3.99237,-0.25933 11.82988,-0.33531 13.89061,-0.13465 1.16417,0.11335 4.0812,0.35234 6.48229,0.53108 2.4011,0.17873 4.81452,0.49294 5.36316,0.69823 0.54867,0.2053 1.22552,0.37326 1.50413,0.37326 0.27864,0 0.84178,0.13736 1.25144,0.30524 0.40965,0.16788 0.87855,0.33373 1.04201,0.36854 0.16343,0.0348 0.69921,0.23922 1.19062,0.45424 0.49138,0.21501 1.42923,0.54612 2.08407,0.7358 0.65484,0.18967 1.30374,0.44322 1.44198,0.56344 0.13824,0.12022 0.51816,0.21858 0.84429,0.21858 0.32609,0 0.66452,0.11588 0.75207,0.2575 0.27239,0.44075 1.78316,0.99971 3.57624,1.32316 2.07561,0.37441 3.47599,0.82621 5.32361,1.71752 0.76451,0.36881 1.53175,0.67057 1.70497,0.67057 0.17322,0 0.4472,0.15932 0.60881,0.35405 0.1616,0.19473 0.77798,0.49911 1.36975,0.6764 0.98668,0.29563 1.57278,0.65696 2.51288,1.54924 0.19163,0.1819 0.45754,0.33072 0.59092,0.33072 0.13335,0 0.45796,0.23813 0.72136,0.52917 0.26339,0.29104 0.62058,0.52917 0.79375,0.52917 0.17317,0 0.53035,0.23812 0.79375,0.52916 0.26339,0.29105 0.75808,0.52917 1.09934,0.52917 0.34123,0 0.62045,0.1229 0.62045,0.27311 0,0.15021 0.20836,0.35857 0.46302,0.46302 1.09458,0.44895 2.46994,1.55828 2.61371,2.10814 0.17555,0.67153 0.37828,0.73864 0.8391,0.27781 0.40833,-0.40833 0.41175,-1.27 0.005,-1.27 -0.60622,0 -4.18981,-2.96797 -4.34888,-3.60178 -0.0872,-0.34735 -0.25022,-0.63155 -0.36232,-0.63155 -0.11208,0 -0.34861,-0.34963 -0.52562,-0.77696 -0.17701,-0.42733 -0.78677,-1.28058 -1.35501,-1.89611 -1.66487,-1.80336 -1.21523,-2.52978 0.62632,-1.01183 1.00899,0.8317 1.36112,0.57742 0.59785,-0.43172 -0.56568,-0.7479 -0.49998,-1.22614 0.15486,-1.1273 0.36965,0.0558 0.85696,0.62197 1.43291,1.66477 0.48,0.86912 1.1209,1.78118 1.42422,2.02679 0.30332,0.24561 0.55147,0.55487 0.55147,0.68725 0,0.43951 1.85727,2.4186 2.4447,2.60504 0.31785,0.10088 0.79944,0.46504 1.07019,0.80925 0.27075,0.3442 0.64873,0.62582 0.83997,0.62582 0.41309,0 0.85032,-2.16596 1.19208,-5.90563 0.27112,-2.9663 0.69025,-3.87878 1.72921,-3.76473 0.37328,0.041 0.74472,0.14054 0.82545,0.22126 0.38954,0.38955 0.56637,2.25488 0.34105,3.59816 -0.137,0.81692 -0.22834,2.1508 -0.20297,2.96417 0.0254,0.81336 -0.0335,1.60783 -0.13096,1.76547 -0.35187,0.56933 -0.67276,2.93855 -0.52301,3.8614 l 0.15312,0.94363 0.92541,-0.38666 c 1.16072,-0.48499 1.12535,-0.48947 1.12535,0.14251 0,0.35278 0.1764,0.52917 0.52916,0.52917 0.44027,0 0.52917,-0.17639 0.52917,-1.05003 0,-0.82466 0.0852,-1.01734 0.39688,-0.89773 0.26842,0.103 0.39687,-0.0132 0.39687,-0.35906 0,-0.57544 0.91948,-1.51809 1.71979,-1.76313 0.29104,-0.0891 0.72228,-0.5026 0.95832,-0.91887 0.26426,-0.46609 1.07389,-1.07904 2.10738,-1.59548 0.92302,-0.46124 1.92053,-1.0588 2.21668,-1.3279 0.29615,-0.26911 0.9775,-0.62979 1.5141,-0.80152 0.53663,-0.17173 1.25101,-0.52807 1.5875,-0.79186 0.33653,-0.2638 1.02857,-0.56842 1.53789,-0.67695 0.50933,-0.10853 1.04603,-0.29329 1.19272,-0.41059 0.9167,-0.7331 5.14064,-1.79785 7.28295,-1.83584 2.92526,-0.0519 6.21337,0.13224 6.37688,0.35705 0.0925,0.12717 0.70765,0.24623 1.36707,0.26458 0.6594,0.0184 1.28818,0.12267 1.39727,0.23181 0.10911,0.10914 0.62502,0.20126 1.14649,0.20472 0.52144,0.004 1.66246,0.30056 2.53558,0.66023 0.87313,0.35967 1.74773,0.65451 1.94355,0.65518 0.19582,7.9e-4 0.7316,0.19682 1.19063,0.43588 1.56001,0.81247 1.75321,0.88826 2.26414,0.88826 0.28088,0 0.55039,0.0988 0.59891,0.21958 0.0948,0.23609 2.94445,1.6325 3.33137,1.6325 0.1283,0 0.49207,0.29766 0.80841,0.66146 0.60833,0.69966 1.37808,0.8863 1.36395,0.33073 -0.0127,-0.49954 -0.66315,-1.25677 -1.07952,-1.25677 -0.4422,0 -3.38519,-2.85104 -4.24995,-4.11718 -0.33838,-0.49542 -0.7343,-0.8759 -0.87982,-0.84551 -0.46718,0.0976 -1.98438,-0.95809 -1.98438,-1.38071 0,-0.45877 0.95473,-1.16939 1.6414,-1.22173 0.24794,-0.0189 0.42653,0.0793 0.39687,0.21813 -0.0296,0.13887 0.15785,0.39024 0.41667,0.5586 0.37028,0.24089 0.52192,0.22373 0.7116,-0.0805 0.20127,-0.32279 0.35184,-0.2791 0.91207,0.26459 0.36904,0.35816 0.88225,0.84706 1.14046,1.08644 0.73446,0.68091 1.57485,1.73909 1.75593,2.21101 0.0908,0.2365 0.29014,0.35265 0.4431,0.25813 0.38523,-0.2381 1.50143,0.53942 1.70778,1.18961 0.0936,0.29492 0.34078,0.53621 0.54925,0.53621 0.20846,0 0.37904,0.11907 0.37904,0.26459 0,0.14552 0.17317,0.26458 0.38484,0.26458 0.21166,0 0.7027,0.31786 1.09122,0.70635 l 0.70633,0.70635 0.63334,-1.56624 c 0.34832,-0.86144 0.78001,-1.68531 0.95932,-1.83083 0.41873,-0.33986 0.98745,-1.96136 0.98745,-2.81541 0,-0.36364 0.34682,-1.04961 0.77068,-1.52439 1.07492,-1.20399 1.23227,-1.76056 1.72752,-6.11125 0.24021,-2.11005 0.54729,-4.61036 0.68244,-5.55625 0.13515,-0.94588 0.27845,-2.47445 0.31848,-3.39681 l 0.0728,-1.67703 -3.57188,-0.0145 c -1.96453,-0.008 -3.69094,-0.0981 -3.83646,-0.20015 -0.14552,-0.10207 -0.82785,-0.33797 -1.51633,-0.52421 -1.38882,-0.3757 -1.88044,-0.80326 -1.74318,-1.51604 0.0705,-0.36623 0.45437,-0.51917 1.6755,-0.66762 0.8712,-0.10592 1.86188,-0.25983 2.2015,-0.34202 0.33962,-0.0822 0.55163,-0.0429 0.47117,0.0873 -0.18434,0.29825 1.00367,1.44042 1.24608,1.19801 0.0983,-0.0983 0.17881,0.0404 0.17881,0.30829 0,0.45087 0.0445,0.44527 0.59867,-0.0753 0.47747,-0.44856 0.99417,-0.57843 2.55199,-0.64143 1.4102,-0.057 2.00953,-0.18935 2.15558,-0.47588 0.11129,-0.21829 0.32798,-1.52797 0.48154,-2.91042 0.15357,-1.38245 0.40662,-3.10886 0.56232,-3.83646 0.15568,-0.7276 0.35317,-1.94799 0.43884,-2.71198 l 0.15576,-1.38906 h -1.10043 c -1.57078,0 -2.82816,-0.88753 -4.60203,-3.2484 -0.93784,-1.24821 -1.64139,-4.18191 -1.63208,-6.80577 0.007,-2.09846 0.19434,-2.57329 2.44869,-6.22105 0.77092,-1.24738 2.51286,-3.03936 2.9545,-3.03936 0.10991,0 0.5711,-0.35482 1.02491,-0.78849 0.49398,-0.47208 0.98751,-0.72615 1.22987,-0.63315 0.22262,0.0854 0.40478,0.0446 0.40478,-0.0907 0,-0.13529 0.56555,-0.53047 1.25677,-0.87816 1.75176,-0.88116 4.82656,-0.96089 5.70111,-0.14784 0.50747,0.47176 0.8681,0.54213 2.43145,0.47441 2.25104,-0.0975 4.77107,0.59354 5.35529,1.46857 0.21863,0.32743 0.51203,0.59532 0.65199,0.59532 0.39743,0 1.84679,1.54788 2.37876,2.54046 1.1447,2.13573 0.36545,5.04771 -2.03046,7.5876 -0.65604,0.69549 -1.19282,1.32908 -1.19282,1.40796 0,0.22038 -0.63757,0.76003 -0.97534,0.82553 -0.16571,0.0321 -0.75819,0.47891 -1.31662,0.99282 -0.55843,0.51392 -1.22369,1.00167 -1.47836,1.08388 -0.25466,0.0822 -0.46302,0.26053 -0.46302,0.39624 0,0.13572 -0.17184,0.24676 -0.38187,0.24676 -0.21003,0 -0.53745,0.20842 -0.7276,0.46316 -0.91795,1.22973 -5.65439,3.70798 -6.48071,3.39089 -0.39478,-0.1515 -0.38296,-0.18731 -0.50014,1.51573 -0.048,0.69781 -0.26956,1.98015 -0.49231,2.84964 -0.60643,2.36717 -1.08199,6.30417 -0.79219,6.55829 0.36568,0.32066 13.22266,-0.88724 13.74045,-1.29091 0.28768,-0.22427 1.16713,-0.333 2.32076,-0.28692 0.5115,0.0204 0.82553,0.23172 1.03826,0.69858 0.27614,0.60612 0.20838,0.76818 -0.718,1.71689 -0.99214,1.01604 -1.04249,1.03481 -1.67103,0.62297 -0.52486,-0.3439 -0.82958,-0.37102 -1.60277,-0.14264 -0.52509,0.1551 -2.14535,0.35967 -3.60055,0.45461 -1.45521,0.0949 -3.45729,0.33902 -4.44908,0.54241 -0.99176,0.20339 -2.36098,0.37142 -3.04271,0.37341 -1.56025,0.005 -2.45419,0.23833 -2.38482,0.62367 0.0296,0.16432 -0.0866,1.13219 -0.25815,2.15084 -0.45202,2.68353 -0.63918,6.21771 -0.32933,6.21771 0.49578,0 1.60054,1.97023 1.60054,2.85438 0,0.48371 0.35719,1.59938 0.79375,2.47928 0.43657,0.8799 0.79375,1.76619 0.79375,1.96953 0,0.20335 0.11907,0.36973 0.26459,0.36973 0.14552,0 0.26458,0.23812 0.26458,0.52916 0,0.29104 0.11906,0.52917 0.26458,0.52917 0.14552,0 0.26459,0.15059 0.26459,0.33465 0,0.18405 0.23836,0.77936 0.52967,1.32291 0.29133,0.54355 0.47196,0.98827 0.4014,0.98827 -0.0705,0 0.10781,0.42034 0.39637,0.93409 0.28855,0.51375 0.52464,1.11068 0.52464,1.32651 0,0.21583 0.11726,0.59916 0.26059,0.85185 0.14332,0.25268 0.50884,1.22459 0.8123,2.1598 0.30345,0.93521 0.88024,2.42491 1.28177,3.31045 0.93485,2.06182 0.74583,2.8792 -0.75382,3.25985 -0.56116,0.14244 -1.14171,0.18394 -1.29011,0.0922 -0.25874,-0.1599 -0.84929,-1.59544 -1.39399,-3.38855 -0.14142,-0.46557 -0.43106,-1.17994 -0.64365,-1.5875 -0.21257,-0.40756 -0.38724,-0.90124 -0.38812,-1.09706 0,-0.19583 -0.1674,-0.67208 -0.36999,-1.05834 -0.20259,-0.38625 -0.54901,-1.17853 -0.76986,-1.76061 -0.82698,-2.17979 -2.63967,-6.35913 -2.86319,-6.60136 -0.12755,-0.13824 -0.23193,-0.46193 -0.23193,-0.7193 0,-0.77803 -0.66633,-0.27951 -1.04442,0.78141 -0.19269,0.54065 -0.55149,1.28065 -0.7974,1.64446 -0.24587,0.3638 -0.60989,1.07817 -0.80893,1.5875 -0.19905,0.50932 -0.42884,0.98557 -0.51065,1.05833 -0.23662,0.21048 -0.80735,1.9753 -0.80735,2.49652 0,0.26102 -0.28768,1.02647 -0.63931,1.70101 -0.35161,0.67453 -0.71107,1.55385 -0.79878,1.95403 -0.15171,0.69207 -0.67858,1.03945 -0.67858,0.44741 0,-0.5772 -0.55131,0.0942 -1.25132,1.52377 -1.25478,2.5626 -2.75537,3.63972 -3.72285,2.67226 -0.4963,-0.49629 -0.3801,-1.15826 0.44284,-2.5228 1.56112,-2.58852 1.21552,-3.54576 -0.64622,-1.78991 -0.54004,0.50932 -1.16134,0.92604 -1.38065,0.92604 -0.7715,0 -5.60541,4.44503 -5.61075,5.15938 -0.003,0.26268 7.13483,0.2908 12.35226,0.0487 2.84054,-0.13183 3.55856,-0.51933 2.89486,-1.5623 -0.48358,-0.7599 -0.59526,-7.76084 -0.13269,-8.3182 0.35126,-0.42323 1.71278,-0.47276 1.96088,-0.0713 0.0963,0.15581 0.22524,1.5548 0.28651,3.10885 0.17302,4.38661 0.28607,5.49401 0.62572,6.12867 l 0.31483,0.58825 8.37652,-0.19029 c 9.86586,-0.22414 13.42747,-0.22745 13.77479,-0.0128 0.13954,0.0862 0.31387,0.0595 0.38738,-0.0595 0.1162,-0.18804 10.47601,-0.2914 31.56892,-0.31496 5.85096,-0.006 5.86975,-0.008 6.05991,-0.60187 0.27191,-0.84864 0.21722,-14.58214 -0.0584,-14.67507 -0.12592,-0.0425 -0.22895,-1.18631 -0.22895,-2.54189 0,-1.99429 0.0884,-2.55322 0.46302,-2.92845 0.25467,-0.25506 0.46302,-0.61925 0.46302,-0.80932 0,-0.55806 0.81238,-1.07176 1.55814,-0.98525 0.37996,0.0441 1.01504,0.45934 1.41131,0.92282 0.66781,0.78106 0.7207,1.01681 0.72356,3.22393 0.003,1.30969 -0.11235,2.55985 -0.25342,2.77813 -0.19958,0.30883 -0.26768,0.22077 -0.30695,-0.39688 -0.0278,-0.43656 -0.12157,0.33735 -0.20849,1.71979 -0.0869,1.38245 -0.0747,3.52558 0.0271,4.7625 0.35491,4.31271 0.47374,6.22816 0.48101,7.75468 0.005,1.02925 0.1015,1.47878 0.29237,1.36081 0.19682,-0.12165 0.23032,0.18859 0.10827,1.00258 -0.18685,1.24604 -0.37902,3.85356 -0.36576,4.96318 0.004,0.36381 0.0151,1.01865 0.0238,1.45521 0.0272,1.35407 -0.63778,4.4743 -1.05723,4.96094 -0.42603,0.49431 -1.78474,0.61443 -2.41797,0.21376 -0.30678,-0.1941 -0.38976,-1.20124 -0.42519,-5.16158 -0.0243,-2.70623 -0.11469,-4.99108 -0.20105,-5.07744 -0.24556,-0.24556 -33.60844,-0.11258 -41.72284,0.1663 -4.00182,0.13754 -14.36026,0.3285 -23.01875,0.42435 l -15.74271,0.17428 -0.71294,0.59891 c -0.39212,0.32941 -0.65588,0.65597 -0.58614,0.7257 0.0697,0.0697 -0.20478,0.0681 -0.60999,-0.004 -0.40521,-0.0717 -1.0609,-0.43235 -1.45712,-0.80135 l -0.72032,-0.67091 -8.54009,0.0528 c -4.69702,0.029 -11.2785,0.10422 -14.62548,0.16706 -3.34698,0.0628 -10.29771,0.18547 -15.44605,0.27251 l -9.36065,0.15826 -1.06383,0.70941 c -0.5851,0.39018 -1.25439,0.82847 -1.48728,0.974 -0.23288,0.14552 -0.48297,0.33514 -0.55573,0.42138 -0.0728,0.0862 -0.76824,0.60076 -1.54554,1.14337 -1.21525,0.84837 -1.61724,0.98659 -2.86946,0.98659 -1.63467,0 -1.53992,0.0406 -1.78768,-0.76541 -0.14631,-0.47603 -0.0799,-0.59531 0.33163,-0.59531 0.28302,0 0.65646,-0.17094 0.82987,-0.37987 0.17338,-0.20893 0.68127,-0.46026 1.12865,-0.55852 0.98343,-0.216 2.19044,-1.47727 1.68614,-1.76197 -0.34602,-0.19533 -97.07525,-0.055 -113.39653,0.16455 -9.33873,0.1256 -11.10964,0.22354 -13.05697,0.7221 -0.85156,0.21802 -1.10541,0.18205 -1.54927,-0.21955 -0.50504,-0.45692 -1.55125,-0.47641 -21.5134,-0.40073 -13.96012,0.0529 -21.03797,-0.0101 -21.14812,-0.18833 -0.1116,-0.18057 -0.3975,-0.17969 -0.87723,0.003 -0.79247,0.30129 -29.53766,0.35235 -70.04563,0.12441 -13.53344,-0.0761 -41.63219,-0.13942 -62.441674,-0.14059 -20.80948,-10e-4 -38.07354,-0.0116 -38.36458,-0.0233 -0.29105,-0.0116 -2.55323,-0.0474 -5.02709,-0.0795 -2.47385,-0.0321 -4.63325,-0.14212 -4.79866,-0.2445 -0.16542,-0.10238 -0.42306,-0.0386 -0.57255,0.14167 -0.408,0.49209 -0.94282,4.06391 -0.90085,6.01636 0.0221,1.02888 -0.0945,1.87924 -0.29036,2.11667 -0.96181,1.16621 -2.69603,1.39248 -3.54887,0.46302 z M 239.65902,286.15079 c 18.50772,-10e-6 33.7605,0.068 33.89507,0.15119 0.13457,0.0832 0.93051,0.008 1.76877,-0.16686 0.83825,-0.17494 1.88129,-0.31493 2.31785,-0.3111 0.43656,0.004 0.85328,-0.0709 0.92604,-0.16616 0.26477,-0.34652 2.34209,-1.14001 2.5875,-0.98835 0.13872,0.0857 0.45217,-0.0651 0.69659,-0.33519 0.24442,-0.27008 0.91975,-0.56706 1.50069,-0.65996 1.96503,-0.31422 1.64171,-1.60133 -0.76584,-3.04897 -0.82798,-0.49784 -2.04118,-1.345 -2.69602,-1.88258 -0.65484,-0.53757 -1.48828,-1.07011 -1.85208,-1.18342 -0.36381,-0.1133 -1.01865,-0.47455 -1.45521,-0.80277 -0.92094,-0.69237 -3.51785,-1.97293 -4.00106,-1.97293 -0.18155,0 -0.66529,-0.13645 -1.07495,-0.30323 -0.40965,-0.16677 -1.16154,-0.33641 -1.67087,-0.37697 -0.50932,-0.0406 -1.67208,-0.43989 -2.58389,-0.8874 -0.91184,-0.44751 -1.82097,-0.81365 -2.02028,-0.81365 -0.19934,0 -0.70345,-0.17786 -1.12027,-0.39525 -0.41683,-0.21738 -1.14856,-0.39597 -1.62608,-0.39687 -0.92345,-0.002 -3.98894,-0.93692 -4.41021,-1.3454 -0.13824,-0.13405 -0.55496,-0.24446 -0.92604,-0.24536 -0.37108,-7.9e-4 -1.0111,-0.1771 -1.42227,-0.39155 -0.41118,-0.21446 -1.53598,-0.4707 -2.49959,-0.56943 -0.96359,-0.0987 -2.35358,-0.41027 -3.08886,-0.69234 -0.73527,-0.28206 -1.7536,-0.60644 -2.26292,-0.72084 -0.933,-0.20957 -3.08411,-0.80226 -4.722,-1.30105 -0.48705,-0.14833 -1.0422,-0.3997 -1.23367,-0.55861 -0.19148,-0.1589 -0.80502,-0.32795 -1.36342,-0.37565 -7.8359,-0.6694 -9.88726,-1.03519 -14.24446,-2.54004 -1.71097,-0.59092 -4.23162,-1.21635 -6.35,-1.57557 -0.7276,-0.12338 -2.38031,-0.413 -3.67267,-0.6436 -1.29237,-0.2306 -2.81825,-0.41927 -3.39084,-0.41927 -0.57258,0 -1.28565,-0.1309 -1.58459,-0.29089 -0.62958,-0.33694 -6.1238,-0.9432 -10.53419,-1.16238 -1.67349,-0.0832 -3.99521,-0.25964 -5.15937,-0.39216 -1.16417,-0.13252 -3.72401,-0.42711 -5.68854,-0.65465 -1.96454,-0.22753 -5.53641,-0.47285 -7.9375,-0.54514 -2.4011,-0.0723 -5.19907,-0.19579 -6.21771,-0.27444 -7.45203,-0.57539 -18.43712,-0.13623 -24.60625,0.98368 -1.01865,0.18492 -2.61503,0.31666 -3.54751,0.29275 -2.03744,-0.0522 -11.60383,1.01628 -12.15647,1.35783 -0.1253,0.0774 -0.92941,0.21126 -1.78692,0.29739 -1.67678,0.1684 -2.06429,0.23475 -3.64173,0.6235 -0.56336,0.13883 -1.18844,0.18944 -1.38906,0.11245 -0.20062,-0.077 -0.36477,-0.0253 -0.36477,0.11488 0,0.14016 -0.93965,0.33321 -2.08811,0.42899 -1.14847,0.0958 -2.42839,0.2849 -2.84428,0.42027 -0.41588,0.13537 -1.17287,0.30084 -1.6822,0.3677 -2.25137,0.29556 -4.9275,0.7439 -5.29166,0.88654 -0.21828,0.0855 -0.71682,0.13017 -1.10787,0.0993 -0.39105,-0.0309 -0.95969,0.0769 -1.26365,0.2396 -0.5189,0.2777 -1.53799,0.48061 -3.26589,0.65024 -0.40843,0.0401 -0.87873,0.20902 -1.0451,0.37539 -0.16637,0.16637 -0.55649,0.30249 -0.86694,0.30249 -0.31044,0 -0.64098,0.0765 -0.73454,0.1701 -0.0935,0.0935 -0.798,0.19036 -1.56545,0.21513 -0.76744,0.0248 -1.57395,0.12527 -1.79223,0.22334 -0.21828,0.0981 -1.62986,0.41873 -3.13684,0.71259 -1.50699,0.29386 -2.858504,0.60755 -3.003374,0.69708 -0.14487,0.0895 -0.93595,0.21152 -1.75795,0.27108 -2.08586,0.15113 -2.3829,0.21299 -2.74077,0.57086 -0.17315,0.17316 -0.61843,0.31549 -0.98951,0.3163 -0.63698,10e-4 -2.31512,0.37428 -3.18823,0.70843 -0.21828,0.0835 -0.635,0.18875 -0.92604,0.23379 -0.29104,0.0451 -1.3626,0.27602 -2.38125,0.51327 -1.01864,0.23725 -2.1795,0.49625 -2.57968,0.57556 -0.40019,0.0793 -0.72761,0.23441 -0.72761,0.34467 0,0.11026 -0.59042,0.27879 -1.31204,0.37451 -0.72163,0.0957 -1.37515,0.27616 -1.45229,0.40097 -0.0771,0.12481 -0.58804,0.3106 -1.13535,0.41288 -0.54731,0.10228 -1.11417,0.27978 -1.25969,0.39445 -0.14552,0.11466 -1.09802,0.41356 -2.11667,0.66423 -1.01865,0.25066 -1.99691,0.57417 -2.17392,0.71889 -0.17701,0.14474 -0.47077,0.21351 -0.65279,0.15283 -0.18203,-0.0607 -0.71422,0.14976 -1.18264,0.46764 -0.46841,0.31787 -1.30575,0.65102 -1.86074,0.74032 -0.55499,0.0893 -1.48074,0.40339 -2.05721,0.69798 -0.57647,0.29458 -1.24033,0.5356 -1.47523,0.5356 -0.23491,0 -0.70674,0.29766 -1.04851,0.66146 -0.34178,0.3638 -0.88208,0.66146 -1.20067,0.66146 -0.31859,0 -0.89062,0.31137 -1.27118,0.69192 -0.44288,0.44288 -0.8502,0.63118 -1.13169,0.52317 -0.24188,-0.0928 -0.75042,0.0402 -1.1301,0.29568 -1.15109,0.77445 -1.9173,1.13506 -2.41167,1.13506 -0.28093,0 -0.53708,0.2663 -0.63626,0.66146 -0.0913,0.3638 -0.32628,0.66146 -0.52217,0.66146 -0.19588,0 -0.65888,0.23813 -1.02888,0.52917 -0.36999,0.29104 -0.91185,0.52916 -1.20412,0.52916 -0.29226,0 -1.04212,0.47625 -1.66635,1.05834 -0.62423,0.58208 -1.28906,1.05833 -1.47739,1.05833 -0.42381,0 -0.42495,0.27456 -0.003,0.79375 0.26291,0.32372 1.10306,0.39485 4.55783,0.38588 2.32952,-0.006 4.37513,-0.0973 4.54578,-0.20275 0.17065,-0.10547 0.36689,-0.10052 0.43609,0.011 0.0692,0.11151 6.61423,0.20275 14.54452,0.20275 7.9303,0 14.38243,0.0595 14.33807,0.13229 -0.0444,0.0728 5.17625,0.1528 11.601364,0.17786 11.44736,0.0446 36.41006,0.19176 79.65418,0.46939 11.91855,0.0765 21.74121,0.21121 21.82813,0.29932 0.0869,0.0881 0.70956,0.0875 1.38365,-10e-4 0.67409,-0.0888 16.3683,-0.1615 34.87603,-0.16151 z m 82.9916,-0.10568 c 16.66891,-0.13953 29.95346,-0.16639 61.56116,-0.12449 l 20.58149,0.0273 1.55737,-0.75346 c 0.85656,-0.41441 1.69801,-1.00724 1.86986,-1.3174 0.39695,-0.71636 0.0928,-2.19471 -0.49588,-2.41057 -0.24093,-0.0883 -0.85215,-0.49702 -1.35824,-0.90816 -0.50612,-0.41115 -1.0532,-0.74754 -1.21579,-0.74754 -0.16256,0 -0.51107,-0.23813 -0.77446,-0.52917 -0.26339,-0.29104 -0.59214,-0.52917 -0.73054,-0.52917 -0.13841,0 -0.69861,-0.354 -1.24489,-0.78666 -0.54629,-0.43267 -1.06119,-0.71873 -1.14422,-0.6357 -0.0831,0.083 -0.30692,-0.0987 -0.49755,-0.40396 -0.1906,-0.30521 -0.48191,-0.55493 -0.64738,-0.55493 -0.16547,0 -0.44797,-0.17728 -0.6278,-0.39396 -0.17982,-0.21668 -0.43334,-0.32821 -0.56336,-0.24785 -0.13004,0.0804 -0.59279,-0.10765 -1.02835,-0.41781 -0.43559,-0.31015 -0.79195,-0.49245 -0.79195,-0.4051 0,0.0873 -0.54002,-0.14267 -1.20002,-0.51115 -0.66,-0.36848 -1.46537,-0.66996 -1.78967,-0.66996 -0.3243,0 -1.24113,-0.23813 -2.0374,-0.52917 -0.79626,-0.29104 -1.71029,-0.52916 -2.03118,-0.52916 -0.32088,0 -0.64735,-0.10343 -0.72546,-0.22983 -0.0781,-0.12641 -0.62092,-0.30641 -1.20623,-0.40001 -0.58531,-0.0936 -1.06421,-0.27736 -1.06421,-0.40837 0,-0.13101 -0.4694,-0.3175 -1.04309,-0.41443 -0.57373,-0.0969 -1.18362,-0.34552 -1.35533,-0.55242 -0.17172,-0.20691 -0.56552,-0.37708 -0.87511,-0.37816 -0.30962,-10e-4 -1.78504,-0.4178 -3.27872,-0.92604 -1.49371,-0.50824 -3.06425,-0.92408 -3.49013,-0.92408 -0.42587,0 -0.8374,-0.10205 -0.91448,-0.22678 -0.22492,-0.36395 -2.96695,-0.80667 -6.10877,-0.9863 -1.60073,-0.0915 -3.26761,-0.2153 -3.70417,-0.27506 -1.54244,-0.21113 -10.85344,-0.28544 -11.24478,-0.0897 -0.21828,0.10916 -2.06087,0.28031 -4.09467,0.38033 -2.03377,0.10002 -3.76018,0.22024 -3.83646,0.26714 -0.0763,0.0469 -1.09116,0.15524 -2.25533,0.24074 -1.16417,0.0855 -3.00964,0.34349 -4.10104,0.57332 -1.09141,0.22984 -2.34157,0.42534 -2.77813,0.43446 -0.43656,0.009 -0.91072,0.0845 -1.05367,0.16744 -0.14296,0.083 -0.44062,0.16754 -0.66146,0.18793 -0.22085,0.0204 -1.05638,0.16852 -1.85674,0.32917 -0.80037,0.16065 -2.52677,0.48107 -3.83646,0.71203 -1.30969,0.23097 -2.97656,0.59014 -3.70417,0.79817 -0.7276,0.20803 -2.21588,0.63278 -3.30729,0.94389 -1.09141,0.31112 -2.2225,0.65485 -2.51354,0.76385 -1.57925,0.59148 -2.4751,0.87895 -3.30729,1.06128 -0.50933,0.11159 -1.75948,0.53113 -2.77813,0.9323 -1.01864,0.40118 -2.03068,0.75844 -2.24896,0.7939 -0.49141,0.0799 -2.37397,0.85319 -2.91041,1.19556 -0.21828,0.13932 -0.99219,0.5482 -1.7198,0.90861 -0.7276,0.36042 -2.33494,1.5035 -3.57187,2.54018 -1.23693,1.03668 -2.66242,2.23226 -3.16775,2.65685 -0.50535,0.42459 -1.01986,0.77198 -1.14337,0.77198 -0.12353,0 -0.39256,0.16796 -0.59785,0.37325 -0.20529,0.20529 -0.47557,0.41365 -0.60061,0.46302 -0.12507,0.0494 -0.30078,0.46663 -0.3905,0.92722 l -0.16314,0.83746 4.14282,0.0312 c 2.27854,0.0172 4.19516,0.0836 4.25913,0.14754 0.064,0.064 0.20286,0.0628 0.30861,-0.002 0.10576,-0.0654 7.08406,-0.17652 15.50736,-0.24703 z m 92.02537,-0.5647 c 0.52281,-0.52281 0.52104,-0.76509 -0.0116,-1.5779 -0.48282,-0.73688 -0.70226,-0.79475 -1.21862,-0.32143 -0.46273,0.42417 -1.16449,0.86066 -2.31254,1.4384 -0.90683,0.45636 -0.9094,0.4626 -0.26458,0.6424 1.26815,0.35359 3.37251,0.2533 3.80727,-0.18147 z m 4.6491,0.0189 c 0,-0.42048 -0.9293,-0.55512 -1.16782,-0.16919 -0.1954,0.31614 0.10604,0.56607 0.68276,0.56607 0.26678,0 0.48506,-0.17859 0.48506,-0.39688 z m 20.37291,0.0113 17.06563,-0.0528 1.5875,-1.59013 c 0.87312,-0.87457 1.73804,-1.81775 1.92203,-2.09594 0.18402,-0.2782 0.57053,-0.863 0.85892,-1.29956 0.53856,-0.81525 0.67474,-1.87037 0.31456,-2.43713 -0.22336,-0.35147 -2.16947,-1.23667 -2.16947,-0.9868 0,0.0853 -0.31372,-0.0917 -0.69715,-0.39332 -0.38341,-0.30161 -0.89538,-0.54837 -1.13771,-0.54837 -0.24231,0 -0.58939,-0.14883 -0.77129,-0.33073 -0.1819,-0.1819 -0.41407,-0.33115 -0.51594,-0.33166 -0.30945,-0.002 -2.52756,-0.70262 -3.15872,-0.99836 -0.32576,-0.15263 -1.09967,-0.28789 -1.7198,-0.30057 -0.74967,-0.0153 -1.24441,-0.17971 -1.47634,-0.49051 -0.19188,-0.25709 -0.44305,-0.40923 -0.55817,-0.33807 -0.11512,0.0711 -1.16732,0.0201 -2.33818,-0.11344 -1.37964,-0.15735 -2.46911,-0.14885 -3.09567,0.0242 -0.80524,0.22234 -1.11567,0.17914 -1.85741,-0.25849 -0.48979,-0.28899 -1.04822,-0.49667 -1.24094,-0.46151 -0.88289,0.1611 -3.62768,1.05247 -4.58372,1.48857 -2.36414,1.07839 -3.99027,1.85721 -4.36563,2.09088 -0.21828,0.13588 -0.96986,0.4638 -1.67018,0.72871 -1.65754,0.62699 -3.59992,2.36161 -3.77759,3.37353 -0.18873,1.07505 -0.34197,1.25469 -0.91512,1.07278 -0.5022,-0.15939 -2.10378,0.8024 -2.10378,1.26337 0,0.51996 -0.80549,1.0216 -1.35857,0.84607 -0.50491,-0.16026 -0.55113,-0.0997 -0.42545,0.55775 0.0893,0.4672 -0.006,0.88469 -0.26054,1.13905 -0.35896,0.35897 -0.34901,0.42216 0.0939,0.59628 0.27249,0.10712 0.67402,0.12823 0.8923,0.0469 0.21828,-0.0813 8.07641,-0.17162 17.4625,-0.20066 z m 41.52128,-49.57004 c 0.40775,0.0311 1.06526,-0.15573 1.46113,-0.41511 0.39587,-0.25938 0.78404,-0.40731 0.86262,-0.32872 0.0786,0.0786 0.47744,-0.0301 0.88633,-0.24157 0.40891,-0.21145 0.95935,-0.30679 1.22325,-0.21188 0.26387,0.0949 0.39934,0.0831 0.30104,-0.0263 -0.23558,-0.26207 1.03929,-1.6811 1.6982,-1.89023 0.28366,-0.09 1.01034,-0.64132 1.61481,-1.22507 2.1092,-2.03689 2.23197,-2.12871 2.56844,-1.92078 0.1959,0.12109 0.26562,0.0976 0.16994,-0.0572 -0.17613,-0.285 1.53517,-2.03301 2.22385,-2.27154 0.28954,-0.10028 0.48427,-0.63554 0.61534,-1.6915 0.3247,-2.61583 0.2807,-2.76403 -1.21935,-4.10628 -0.76132,-0.68122 -1.48487,-1.17635 -1.60793,-1.1003 -0.12306,0.076 -0.36147,-0.22661 -0.5298,-0.67258 -0.36383,-0.9639 -0.99039,-1.27851 -1.40822,-0.70711 -0.16539,0.2262 -0.49596,0.41127 -0.73456,0.41127 -0.3393,0 -0.43387,0.26566 -0.43387,1.21894 0,1.0028 -0.0742,1.19045 -0.41851,1.05833 -0.23019,-0.0883 -0.51494,-0.1606 -0.63278,-0.1606 -0.11785,0 -0.28895,-0.29766 -0.38026,-0.66146 -0.0913,-0.3638 -0.34235,-0.66146 -0.55788,-0.66146 -0.2155,0 -0.62994,-0.23812 -0.92098,-0.52916 -0.54221,-0.54223 -1.32292,-0.71529 -1.32292,-0.29327 0,0.12975 -0.28033,0.30626 -0.62296,0.39226 -0.34264,0.086 -1.14626,0.63468 -1.78583,1.2193 -0.63955,0.58463 -1.24606,1.06296 -1.34776,1.06296 -0.10171,0 -0.50613,0.29765 -0.89866,0.66146 -0.88532,0.82048 -1.16562,0.83372 -1.16562,0.055 0,-0.73555 1.91069,-2.8736 3.10102,-3.47005 0.83796,-0.41988 1.58181,-1.38308 1.29193,-1.67295 -0.29051,-0.29052 -2.68811,0.82605 -3.49379,1.62707 -0.45136,0.44874 -1.13597,0.98465 -1.52136,1.19091 -0.38539,0.20625 -0.70072,0.53349 -0.70072,0.72718 0,0.19369 -0.16685,0.35216 -0.37073,0.35216 -0.41035,0 -1.18946,1.18404 -2.32246,3.52949 -0.8636,1.78776 -0.95523,3.35676 -0.34674,5.93769 0.63161,2.67898 1.93649,4.78437 2.98209,4.81152 0.18645,0.005 0.39939,0.1661 0.47318,0.35836 0.0846,0.22053 0.42336,0.30711 0.91774,0.23456 0.53477,-0.0785 0.78359,-0.003 0.78359,0.23847 0,0.19442 0.18626,0.0876 0.41391,-0.23746 0.28456,-0.40626 0.64561,-0.57328 1.15528,-0.53445 z m 33.68654,43.33274 c -0.32743,-0.13161 -0.59532,-0.42172 -0.59532,-0.64469 0,-0.22297 -0.10096,-0.4054 -0.22439,-0.4054 -0.1234,0 -0.41402,-0.58712 -0.64577,-1.30471 -0.23175,-0.71759 -0.73673,-2.09298 -1.12215,-3.05642 -0.67511,-1.68748 -0.68493,-1.78515 -0.26786,-2.66403 0.2381,-0.50179 0.62576,-0.91234 0.86148,-0.91234 0.23569,0 0.34994,0.0786 0.25384,0.17471 -0.0961,0.0961 0.0627,0.34096 0.3528,0.54417 0.29011,0.2032 0.52747,0.5413 0.52747,0.75133 0,0.21003 0.1647,0.38188 0.36603,0.38188 0.20129,0 0.43857,0.20836 0.52726,0.46302 0.0887,0.25466 0.45638,0.9988 0.81714,1.65364 0.36076,0.65485 0.65926,1.39899 0.66336,1.65365 0.004,0.25466 0.12412,0.46302 0.26667,0.46302 0.4281,0 1.36882,2.10133 1.19121,2.66088 -0.12859,0.40517 -0.39767,0.51057 -1.26981,0.49735 -0.60865,-0.009 -1.37454,-0.12445 -1.70196,-0.25606 z m -1.91823,-7.78135 c 0,-0.0642 -0.11907,-0.19026 -0.26459,-0.2802 -0.14552,-0.0899 -0.26458,-0.0374 -0.26458,0.11668 0,0.15411 0.11906,0.2802 0.26458,0.2802 0.14552,0 0.26459,-0.0525 0.26459,-0.11668 z m -15.27813,4.21068 c -0.32655,-0.16763 -0.51506,-0.38344 -0.41891,-0.4796 0.0961,-0.0962 -0.0156,-0.17482 -0.24832,-0.17482 -0.51443,0 -0.68752,-0.51549 -0.75514,-2.24896 -0.065,-1.66686 0.19724,-2.53496 0.70675,-2.33944 0.23672,0.0908 0.38333,-0.0155 0.38333,-0.27808 0,-0.51362 0.49242,-0.53663 1.13004,-0.0528 0.33684,0.25558 0.54763,1.00169 0.74969,2.65363 0.15463,1.26395 0.22172,2.45286 0.14912,2.64203 -0.19063,0.49678 -1.00912,0.63092 -1.69656,0.27804 z m 8.16679,-1.13368 c -1.1937,-1.34993 -1.98274,-3.75407 -1.23209,-3.75407 0.22326,0 0.40593,0.17859 0.40593,0.39687 0,0.21829 0.17859,0.39688 0.39687,0.39688 0.21828,0 0.39688,-0.17157 0.39688,-0.38126 0,-0.76895 0.58576,-0.70898 1.34136,0.13732 0.48312,0.54117 0.7753,1.16038 0.7753,1.64319 0,0.69432 0.0687,0.75754 0.66146,0.60877 0.7356,-0.18463 0.80849,0.0256 0.35441,1.02224 -0.25842,0.56715 -0.47844,0.67133 -1.38906,0.65766 -0.82987,-0.0125 -1.22862,-0.18202 -1.71106,-0.7276 z M 27.811256,260.73017 c -0.56548,-0.16335 -0.89699,-0.44743 -0.97559,-0.83604 -0.0655,-0.32374 -0.19616,-0.9458 -0.2904,-1.38237 -0.0942,-0.43656 -0.21516,-1.37749 -0.26871,-2.09095 -0.0535,-0.71347 -0.20224,-1.4021 -0.33044,-1.5303 -0.1344,-0.1344 -0.12805,-0.92708 0.015,-1.87219 0.16562,-1.09431 0.14216,-3.00404 -0.0706,-5.74574 -0.48186,-6.2098 -0.64007,-13.76394 -0.28825,-13.76394 0.36363,0 1.37068,-1.14122 1.73397,-1.96499 0.47569,-1.07866 2.69907,-3.32668 3.29021,-3.32668 0.30519,0 0.55489,-0.10773 0.55489,-0.2394 0,-0.33495 2.12858,-0.0385 2.82001,0.39279 0.83306,0.5196 1.43874,1.88368 1.60506,3.61487 0.20054,2.08723 0.56276,2.30881 1.83251,1.12101 0.89916,-0.84112 1.14652,-0.93957 2.11154,-0.84038 0.60119,0.0618 1.3751,0.3251 1.71979,0.58512 0.59545,0.44917 0.62815,0.63248 0.65542,3.67406 0.0396,4.4138 0.19859,5.6648 0.77349,6.08518 1.18767,0.86845 0.0981,2.68046 -1.4282,2.3752 -0.63291,-0.12658 -0.89772,-0.41045 -1.33828,-1.43457 -0.30209,-0.70222 -0.54925,-1.3965 -0.54925,-1.54283 0,-0.61124 -0.53526,-0.51508 -1.28034,0.22999 -0.43759,0.4376 -0.98711,0.79563 -1.22116,0.79563 -0.23404,0 -0.48374,0.15169 -0.55488,0.33709 -0.16322,0.42534 -2.23041,0.5255 -2.70564,0.13109 -0.19468,-0.16157 -0.52215,-0.69628 -0.72771,-1.18824 -0.34261,-0.81998 -0.42354,-0.86781 -0.97187,-0.57435 -0.32898,0.17606 -0.81187,0.59182 -1.07309,0.92391 -0.26122,0.33209 -0.7127,0.67926 -1.00329,0.77149 -0.50535,0.1604 -0.52314,0.3481 -0.40897,4.31512 0.0657,2.28109 0.18526,4.98087 0.26578,5.99951 0.46764,5.91564 0.45493,6.42835 -0.17018,6.8662 -0.32183,0.22541 -0.64795,0.39911 -0.72471,0.38598 -0.0768,-0.0131 -0.52501,-0.1352 -0.9961,-0.27127 z m 2.07435,-21.33455 c 0.32973,-0.5457 0.9178,-1.28985 1.30681,-1.65365 1.16127,-1.08602 1.66836,-2.4927 1.68962,-4.68705 0.0158,-1.63462 -0.0654,-2.03171 -0.47705,-2.33284 -0.43943,-0.32144 -0.58072,-0.27833 -1.23616,0.37711 -0.81809,0.81809 -1.84396,2.81863 -1.95252,3.80759 -0.0385,0.35024 -0.15403,0.77292 -0.25685,0.93929 -0.37624,0.60876 -0.17382,4.54174 0.23375,4.54174 0.0511,0 0.36266,-0.44649 0.6924,-0.99219 z m 8.07657,-1.03995 c 1.40543,-1.48625 1.72281,-2.32296 1.11259,-2.93318 -0.4872,-0.48719 -2.73474,1.93512 -2.93383,3.16196 -0.14185,0.87408 -0.0546,1.27419 0.27784,1.27419 0.0672,0 0.76172,-0.67634 1.5434,-1.50297 z m 400.730404,15.47297 c -0.17462,-0.17463 -0.3175,-0.53555 -0.3175,-0.80205 0,-0.26651 -0.16758,-0.54887 -0.37242,-0.62748 -0.53497,-0.20528 -1.47966,-2.54867 -1.47966,-3.67037 0,-1.33791 0.80367,-2.7625 2.29542,-4.06882 2.27711,-1.99407 2.46708,-2.20376 2.46708,-2.7231 0,-0.4954 -0.91548,-2.00834 -1.45521,-2.40486 -0.43683,-0.32093 -0.92604,-0.22766 -0.92604,0.17656 0,0.20847 -0.23812,0.45462 -0.52917,0.54699 -0.29104,0.0924 -0.52916,0.27371 -0.52916,0.40296 0,0.57173 -2.51566,3.69809 -2.97572,3.69809 -0.43921,0 -0.19727,-2.38327 0.2916,-2.87213 0.26998,-0.26998 0.56906,-0.8024 0.66461,-1.18317 0.0956,-0.38076 0.64859,-1.17671 1.22893,-1.76877 0.58034,-0.59206 1.05516,-1.17412 1.05516,-1.29345 0,-0.11934 0.28826,-0.64174 0.64056,-1.16089 0.35232,-0.51916 0.67974,-1.21106 0.7276,-1.53755 0.13343,-0.91005 0.55303,-0.85621 1.24502,0.15972 0.66908,0.98233 0.71025,0.98764 2.81078,0.36223 0.58208,-0.1733 2.23057,-0.36386 3.66331,-0.42345 3.00265,-0.1249 3.61273,0.15781 3.61273,1.6741 0,0.69836 -0.24516,1.09569 -1.23989,2.00952 -0.68191,0.62647 -1.81674,1.69951 -2.5218,2.38454 l -1.28193,1.24548 0.41542,0.9942 c 0.22847,0.54681 0.52274,1.06055 0.65397,1.14164 0.41887,0.25888 1.58771,3.01965 1.59039,3.75648 0.003,0.92336 -0.33833,1.78449 -1.01389,2.55523 -0.29876,0.34088 -0.57925,0.69807 -0.62328,0.79375 -0.1453,0.31587 -1.67433,1.29364 -3.32978,2.1293 -1.74537,0.88106 -4.13776,1.13465 -4.76713,0.5053 z m 4.77899,-3.19115 c 1.72254,-1.3962 1.78268,-1.48757 1.78268,-2.70906 0,-0.65484 -0.11906,-1.19062 -0.26458,-1.19062 -0.14552,0 -0.26906,-0.14883 -0.27451,-0.33073 -0.006,-0.1819 -0.39243,-0.77633 -0.85989,-1.32095 l -0.84998,-0.99023 -0.85989,0.8052 c -0.47295,0.44286 -0.8599,0.9918 -0.8599,1.21987 0,0.22808 -0.35719,0.8215 -0.79375,1.31872 -0.58534,0.66666 -0.79375,1.16913 -0.79375,1.91367 0,1.33427 0.48514,2.67611 0.96753,2.67611 0.21264,0 0.31178,0.1211 0.22029,0.2691 -0.18926,0.30627 1.48744,-0.77086 2.58575,-1.66108 z m 1.5181,-11.05905 c 0,-0.15411 0.11906,-0.20661 0.26458,-0.11668 0.14552,0.0899 0.26458,-0.006 0.26458,-0.21328 0,-0.20725 0.23813,-0.67954 0.52917,-1.04954 0.59264,-0.75343 0.70329,-1.76339 0.19844,-1.81122 -0.38182,-0.0362 -0.44215,-0.0243 -2.10675,0.41406 -0.68574,0.1806 -1.21065,0.25766 -1.16644,0.17126 0.0442,-0.0864 -0.13885,-0.36547 -0.4068,-0.62013 -0.26797,-0.25466 -0.4872,-0.41323 -0.4872,-0.35237 0,0.0609 -0.0798,0.31852 -0.17724,0.57257 -0.13039,0.33974 -0.0846,0.40463 0.17317,0.24534 0.21555,-0.13323 0.28672,-0.11351 0.18491,0.0512 -0.23571,0.3814 0.20392,1.75593 0.77491,2.42282 0.49993,0.58387 1.95467,0.79668 1.95467,0.28595 z m -108.72695,13.14387 c -0.371,-0.69319 -0.22315,-1.7535 0.46157,-3.31048 0.23079,-0.52483 0.45497,-1.29022 0.49813,-1.70088 0.0432,-0.41065 0.25783,-1.00269 0.47704,-1.31564 0.21921,-0.31295 0.39854,-0.90131 0.39854,-1.30747 0,-0.40615 0.11819,-0.94521 0.26263,-1.1979 0.28525,-0.49895 0.8215,-1.94124 1.64647,-4.42818 0.28964,-0.87312 0.62614,-1.82562 0.7478,-2.11666 0.12165,-0.29104 0.58951,-1.66026 1.03968,-3.04271 0.45016,-1.38245 0.92834,-2.75167 1.06264,-3.04271 0.59248,-1.28412 1.06162,-2.61149 1.06162,-3.00376 0,-0.23408 0.22936,-1.02321 0.50969,-1.75362 0.28033,-0.73042 0.76491,-2.19124 1.07685,-3.24626 0.31195,-1.05503 0.67789,-1.91823 0.81323,-1.91823 0.13533,0 0.24651,-0.20836 0.24704,-0.46302 0,-0.25466 0.26278,-0.87974 0.58274,-1.38907 0.61016,-0.97127 0.6527,-1.07521 0.70612,-1.72546 0.0183,-0.2214 0.33513,-0.54017 0.7043,-0.70838 0.55165,-0.25135 0.74935,-0.22771 1.10971,0.13265 0.38971,0.38971 0.3999,0.59359 0.0916,1.83286 -0.19079,0.76691 -0.50398,1.75156 -0.69593,2.18813 -0.41627,0.94665 -2.90727,8.47793 -3.15045,9.52499 -0.0338,0.14553 -0.20976,0.62178 -0.39103,1.05834 -0.36269,0.87349 -2.02261,6.07344 -2.4071,7.54062 -0.13348,0.50933 -0.60751,1.8135 -1.05341,2.89817 -0.44588,1.08467 -0.91289,2.39436 -1.0378,2.91042 -0.12491,0.51606 -0.59632,1.93888 -1.04757,3.16182 -0.95125,2.57801 -0.98171,2.79426 -0.35742,2.53726 0.95647,-0.39377 1.38906,-0.44829 1.38906,-0.17507 0,0.31651 -1.15303,1.63199 -1.43047,1.63199 -0.0985,0 -0.43476,0.23812 -0.74716,0.52916 -0.80896,0.75367 -2.13868,0.70142 -2.56807,-0.10091 z m 20.95164,-1.26147 c -0.16722,-0.16722 -0.75589,-0.37749 -1.30815,-0.46726 -0.76433,-0.12424 -1.09178,-0.34613 -1.37126,-0.92927 -0.32263,-0.67317 -0.29435,-1.18599 0.23326,-4.2291 0.33025,-1.90467 0.82833,-3.86719 1.10688,-4.36116 0.87114,-1.5449 0.42212,-1.7284 -1.34964,-0.55157 -0.8718,0.57905 -1.76945,1.05283 -1.9948,1.05283 -0.22534,0 -0.40973,0.10613 -0.40973,0.23585 0,0.26753 -1.91323,1.08706 -2.5378,1.08706 -1.27614,0 -1.53236,-2.2011 -0.60508,-5.19765 0.30872,-0.99759 0.58486,-1.93287 0.61362,-2.07839 0.5224,-2.641 2.15802,-6.34876 2.96238,-6.71525 0.63564,-0.28961 0.86183,-1.23158 0.33766,-1.40629 -0.30358,-0.1012 -0.0637,-2.06998 0.25086,-2.05903 0.0929,0.003 0.46664,0.23453 0.83044,0.51398 0.56243,0.43202 0.65958,0.71834 0.64889,1.91234 -0.007,0.8039 -0.26172,2.0248 -0.59531,2.85572 -0.32051,0.79831 -0.58274,1.71402 -0.58274,2.03491 0,0.32089 -0.11907,0.65702 -0.26459,0.74695 -0.14552,0.0899 -0.26458,0.43431 -0.26458,0.76527 0,0.33096 -0.0874,0.68919 -0.19431,0.79606 -0.22278,0.22278 -0.82166,2.90697 -0.84704,3.79649 -0.0209,0.73092 0.65117,0.79519 1.02431,0.098 0.1464,-0.27355 0.73044,-0.6831 1.29784,-0.91013 0.56739,-0.22703 1.10291,-0.59854 1.19001,-0.82557 0.0871,-0.22703 0.31221,-0.41279 0.50014,-0.41279 0.18796,0 0.66937,-0.3038 1.06982,-0.67511 0.40045,-0.37131 0.8641,-0.59104 1.03037,-0.48828 0.16848,0.10412 0.23048,0.0707 0.14009,-0.0756 -0.0892,-0.14435 0.16939,-0.65966 0.57468,-1.14513 0.82426,-0.98731 1.43686,-0.95839 1.91473,0.0904 0.23518,0.51621 0.16491,0.89191 -0.385,2.05795 -0.37001,0.78454 -0.79924,2.02175 -0.95387,2.74936 -0.15462,0.7276 -0.4496,2.03729 -0.65555,2.91041 -1.18788,5.03629 -1.23987,6.37642 -0.28226,7.27605 0.3638,0.34177 0.66146,0.89831 0.66146,1.23674 0,0.49755 -0.14182,0.61534 -0.74084,0.61534 -0.40745,0 -0.87765,-0.13682 -1.04489,-0.30405 z M 2.8709161,251.10343 c 0,-0.21828 -0.10289,-0.39687 -0.22864,-0.39687 -0.51761,0 -1.07024,-2.42166 -1.23776,-5.42396 -0.26814,-4.80569 -0.60055,-9.15251 -0.77897,-10.18646 -0.0879,-0.50932 -0.20915,-1.40229 -0.26947,-1.98438 -0.0603,-0.58208 -0.18804,-1.73459 -0.28384,-2.56113 -0.14829,-1.27936 -0.0909,-1.61983 0.3862,-2.28981 0.30822,-0.43285 0.56039,-1.09979 0.56039,-1.4821 0,-1.47002 1.8468,-6.09885 2.64584,-6.63154 0.74932,-0.49954 2.22328,-0.63111 2.66666,-0.23803 0.22974,0.20368 0.5274,0.37161 0.66146,0.37318 0.36143,0.004 2.49716,2.1088 2.79077,2.75006 0.2685499,0.58652 0.5340999,1.04617 1.4734599,2.55038 0.31949,0.51162 0.69951,1.4029 0.84449,1.98064 0.14499,0.57774 0.5061,1.74575 0.80247,2.59558 0.31388,0.9 0.60626,2.6123 0.70027,4.10104 0.0888,1.40575 0.19335,2.58847 0.23241,2.62827 0.23957,0.24415 0.97191,-0.36994 1.11338,-0.9336 0.41947,-1.67132 2.44474,-2.32032 4.79979,-1.5381 1.43481,0.47657 1.64192,0.75153 1.64192,2.17983 0,0.80481 -0.25438,1.1739 -1.91823,2.7833 -2.59844,2.51341 -4.38016,3.91849 -4.96884,3.91849 -0.37116,0 -0.47611,0.17598 -0.43395,0.72761 0.0495,0.64734 0.16829,0.73386 1.07714,0.7843 0.56184,0.0312 1.08556,0.12075 1.16384,0.19902 0.0783,0.0783 0.34323,-0.0395 0.58881,-0.26177 0.24558,-0.22224 0.90066,-0.42116 1.45574,-0.44202 0.68437,-0.0257 1.48439,-0.35777 2.48538,-1.03154 0.81189,-0.54648 1.74404,-1.07023 2.07146,-1.16389 0.50775,-0.14524 0.59532,-0.0697 0.59532,0.51368 0,0.86017 -1.56284,2.42673 -3.10059,3.10798 -0.61392,0.27197 -1.20923,0.6394 -1.32292,0.8165 -0.11368,0.17711 -0.75698,0.58093 -1.42955,0.8974 -0.97322,0.45794 -1.53861,0.54805 -2.7697,0.44144 -1.73889,-0.15058 -2.38408,-0.41546 -3.1512,-1.29369 -0.69478,-0.7954 -2.1698099,-0.62721 -2.5174099,0.28704 -0.12672,0.3333 -0.50511,0.6898 -0.84087,0.79222 -0.33576,0.10243 -0.78907,0.34226 -1.00735,0.53295 -0.21828,0.1907 -0.51593,0.36948 -0.66145,0.39728 -1.26211,0.24114 -1.57524,0.5884 -1.47071,1.631 0.0294,0.29332 -0.29794,0.59669 -0.92789,0.8599 -1.21392,0.50721 -1.43786,0.50873 -1.43786,0.01 z m 4.11965,-6.13051 c 0.31418,-0.339 0.67832,-0.61636 0.80921,-0.61636 0.13089,0 0.4443,-0.47625 0.69648,-1.05834 0.25217,-0.58208 0.59066,-1.05833 0.75218,-1.05833 0.16152,0 0.22514,-0.17859 0.14138,-0.39688 -0.0838,-0.21828 -0.0505,-0.39687 0.074,-0.39687 0.12443,0 0.28956,-0.32742 0.36695,-0.7276 0.0774,-0.40019 0.2775399,-1.26339 0.4447799,-1.91823 0.79463,-3.11148 0.20971,-8.74586 -1.1536199,-11.1125 -0.37723,-0.65485 -0.79958,-1.44695 -0.93856,-1.76024 -0.13898,-0.31328 -0.3791,-0.64773 -0.53359,-0.74322 -0.1545,-0.0955 -0.28467,-0.37494 -0.28927,-0.62101 -0.005,-0.24608 -0.31019,-0.7907 -0.6791,-1.21028 -0.61046,-0.69431 -0.7286,-0.7319 -1.31456,-0.41831 -0.37282,0.19953 -0.64381,0.58188 -0.64381,0.90839 0,0.31011 -0.11341,0.67725 -0.25202,0.81586 -0.47847,0.47846 -0.83474,4.02001 -0.72351,7.19202 0.0614,1.75014 0.17975,3.29236 0.26306,3.42716 0.21593,0.34938 0.44824,2.47767 0.46434,4.25401 0.008,0.83439 0.12413,2.05286 0.25903,2.7077 0.1349,0.65484 0.31211,1.74361 0.3938,2.41948 0.13296,1.10016 0.20838,1.2132 0.72008,1.07939 0.31436,-0.0822 0.82862,-0.42683 1.14279,-0.76584 z m 9.8855699,-7.18606 c -0.35994,-0.12992 -1.10092,0.70185 -0.90609,1.0171 0.0995,0.16097 0.36862,0.0266 0.65827,-0.32869 0.26949,-0.33056 0.38101,-0.64034 0.24782,-0.68841 z m 412.284644,12.8365 c -0.58298,-0.62056 -0.76033,-1.71972 -0.35157,-2.17899 0.12303,-0.13825 0.72818,-1.8587 1.34479,-3.82323 0.61661,-1.96453 1.33911,-4.10766 1.60555,-4.7625 0.26646,-0.65484 0.68156,-1.96453 0.92247,-2.91042 0.47183,-1.85258 1.06926,-3.78039 1.43486,-4.63021 0.1252,-0.29104 0.54319,-1.31064 0.92882,-2.26578 0.69472,-1.72061 1.96006,-3.42276 2.54444,-3.42276 0.1668,0 0.51142,-0.25706 0.76584,-0.57126 0.55642,-0.68717 1.16848,-0.43019 0.94102,0.39509 -0.0869,0.31518 -0.61177,1.76367 -1.16639,3.21888 -1.91918,5.03538 -2.374,6.35463 -2.55408,7.40833 -0.0995,0.58209 -0.26887,1.1774 -0.37645,1.32292 -0.10758,0.14552 -0.27879,0.72573 -0.38047,1.28934 -0.1017,0.56362 -0.28937,1.21847 -0.41706,1.45521 -0.12771,0.23675 -0.48141,1.26389 -0.78602,2.28253 -0.30462,1.01865 -0.92105,3.04271 -1.36986,4.49792 -0.44878,1.45521 -0.85712,2.79466 -0.90736,2.97656 -0.15478,0.56023 -1.55808,0.37881 -2.17853,-0.28163 z m -102.69651,-3.95945 c -0.35943,-0.18188 -0.93755,-0.74567 -1.28473,-1.25288 -0.59934,-0.87563 -0.62254,-1.06242 -0.45966,-3.70031 0.0944,-1.52797 0.32972,-3.43297 0.52302,-4.23333 0.19328,-0.80037 0.4979,-2.16958 0.67686,-3.04271 0.17899,-0.87312 0.47014,-2.22566 0.64701,-3.00563 0.38772,-1.70986 0.0495,-3.21208 -0.72329,-3.21208 -0.34329,0 -0.46532,0.1725 -0.42116,0.59532 0.0671,0.64208 -0.50512,2.07148 -0.94478,2.36022 -0.14859,0.0976 -1.09108,0.96078 -2.09444,1.91823 -1.00338,0.95745 -1.98144,1.74082 -2.17352,1.74082 -0.19206,0 -0.46855,0.22301 -0.61444,0.49557 -0.26424,0.49378 -2.05505,1.09193 -3.26912,1.09193 -0.65259,0 -1.51135,-0.72595 -1.51135,-1.27761 0,-0.17044 0.16867,-0.30989 0.37484,-0.30989 0.20613,0 0.43521,-0.14883 0.509,-0.33073 0.10361,-0.25532 0.19264,-0.24715 0.39053,0.0358 0.65428,0.93559 2.93494,-0.74561 4.52882,-3.33842 0.68011,-1.10636 1.06272,-1.44781 1.90515,-1.7002 0.57976,-0.17371 1.18105,-0.56277 1.33618,-0.86458 0.53803,-1.04684 2.41562,-2.74231 2.30502,-2.08144 -0.0193,0.11537 -0.0175,0.44789 0.004,0.73893 0.0363,0.48795 0.0604,0.4931 0.30906,0.0661 0.14833,-0.25466 0.42963,-0.46302 0.62511,-0.46302 0.38711,0 0.73578,-0.64641 0.48429,-0.89788 -0.0857,-0.0857 -0.30504,-0.032 -0.48739,0.11927 -0.23056,0.19135 -0.38573,0.18742 -0.50953,-0.0129 -0.0979,-0.15843 0.1135,-0.51736 0.46979,-0.79763 0.35632,-0.28027 0.79502,-0.90057 0.97494,-1.37844 0.60859,-1.61661 0.89098,-2.0595 1.31059,-2.05544 0.36668,0.004 0.36933,0.0357 0.0214,0.26053 -0.34449,0.22263 -0.33949,0.25702 0.0378,0.26054 0.23911,0.002 0.50324,-0.17455 0.58701,-0.39283 0.1805,-0.47034 0.85241,-0.52473 1.12064,-0.0907 0.31533,0.5102 0.14888,1.86213 -0.41836,3.39801 -0.29559,0.80037 -0.6677,2.52677 -0.82693,3.83646 -0.1592,1.30969 -0.3964,2.58178 -0.52713,2.82688 -0.1307,0.24509 -0.23765,0.8428 -0.23765,1.32823 0,0.48544 -0.22772,1.71365 -0.50604,2.72937 -0.27834,1.01572 -0.64463,3.1808 -0.81396,4.81128 -0.34018,3.27499 -0.14415,4.20625 0.99044,4.705 0.32679,0.14365 0.59415,0.38773 0.59415,0.5424 0,0.88033 -1.65389,1.20953 -2.90248,0.57773 z m -155.71523,-0.93596 c -0.29104,-0.062 -0.86572,-0.3959 -1.27707,-0.74202 -0.41134,-0.34613 -0.86648,-0.62932 -1.01141,-0.62932 -0.16221,0 -0.20957,-0.65506 -0.12318,-1.70398 0.10099,-1.2263 0.36598,-2.10381 0.94527,-3.13025 0.44271,-0.78445 0.80494,-1.77978 0.80494,-2.21186 0,-0.43207 0.12943,-0.91502 0.28763,-1.07322 0.20291,-0.2029 0.20451,-0.33901 0.005,-0.46203 -0.33188,-0.20511 -1.35144,0.28477 -1.35144,0.64934 0,0.39923 -2.92593,1.7531 -4.22021,1.95274 -0.64762,0.0999 -1.32398,0.3032 -1.50301,0.45178 -0.17903,0.14859 -0.72072,0.27671 -1.20375,0.28471 -0.99898,0.0166 -2.59803,0.67382 -2.59803,1.06789 0,0.14451 -0.19055,0.18962 -0.42345,0.10025 -0.2687,-0.10311 -0.61226,0.0775 -0.94007,0.49428 -0.4504,0.57258 -0.70983,0.65184 -2.02395,0.61829 -0.82903,-0.0212 -2.21596,0.17037 -3.08207,0.42564 -0.86611,0.25528 -1.907,0.41537 -2.31308,0.35577 -0.40608,-0.0596 -0.6839,-0.0539 -0.61737,0.0126 0.0665,0.0665 0.002,0.34343 -0.14363,0.61534 -0.49195,0.91923 -2.11319,0.4454 -2.40898,-0.70406 -0.20803,-0.80841 0.52277,-1.29956 2.15362,-1.4474 1.19296,-0.10814 1.47752,-0.22889 1.55875,-0.66145 0.13737,-0.73161 0.56244,-0.96035 1.49335,-0.80364 1.18503,0.1995 2.85916,-0.46818 3.05724,-1.21929 0.0904,-0.3426 0.19121,-2.01953 0.22413,-3.72651 0.0329,-1.70699 0.17128,-3.49214 0.30747,-3.96701 0.32358,-1.12826 0.3193,-4.09865 -0.006,-4.29982 -0.40055,-0.24755 -1.20757,0.38243 -2.30506,1.79942 -0.55714,0.71935 -1.31369,1.62582 -1.68121,2.01439 -0.36751,0.38857 -0.82745,1.18899 -1.02208,1.77872 -0.28635,0.86766 -0.56272,1.16215 -1.44845,1.54348 -0.60202,0.25919 -1.27318,0.61725 -1.49146,0.79569 -0.69044,0.56442 -2.21629,0.65751 -2.82562,0.17239 -1.56697,-1.24753 -0.41788,-2.95137 1.99041,-2.95137 h 1.3029 l 0.59063,-1.4552 c 0.39354,-0.96964 0.74223,-1.45521 1.04496,-1.45521 0.24989,0 0.76406,-0.32742 1.14261,-0.7276 1.93343,-2.04392 2.27886,-2.46057 2.42703,-2.92741 0.0885,-0.27886 0.749,-1.14813 1.46777,-1.93173 0.71877,-0.7836 1.31115,-1.61947 1.31641,-1.8575 0.005,-0.23802 0.18741,-0.7738 0.40479,-1.19062 0.21739,-0.41682 0.39598,-1.02574 0.39688,-1.35316 0.001,-0.35206 0.1638,-0.59531 0.3985,-0.59531 0.22049,0 0.39688,-0.23519 0.39688,-0.52917 0,-0.7319 1.45304,-0.74562 1.84277,-0.0174 0.46897,0.87627 0.16296,3.70267 -0.55332,5.11057 -0.12954,0.25463 -0.30874,2.874 -0.39823,5.82083 -0.20246,6.66747 -0.19609,6.1333 -0.0944,7.91415 0.083,1.45277 0.10441,1.49078 0.71043,1.26037 0.34368,-0.13066 0.88928,-0.23202 1.21244,-0.22524 0.59451,0.0125 3.33012,-0.83515 4.86089,-1.50616 0.45855,-0.20101 0.96619,-0.36547 1.12807,-0.36547 0.16188,0 0.50108,-0.10517 0.75376,-0.23371 0.87667,-0.44596 1.78771,-0.81902 2.81251,-1.15168 0.92476,-0.30019 1.1025,-0.51034 1.73733,-2.05419 0.38894,-0.94588 1.0267,-2.39677 1.41724,-3.22419 0.39053,-0.82742 0.7141,-1.60132 0.71904,-1.71979 0.005,-0.11846 0.23902,-0.69164 0.52019,-1.27372 0.28117,-0.58209 0.51525,-1.20716 0.52019,-1.38906 0.005,-0.18191 0.23277,-0.55453 0.5063,-0.82806 0.27353,-0.27353 0.70781,-1.13673 0.96506,-1.91823 0.25725,-0.7815 0.54222,-1.48043 0.63326,-1.55319 0.36874,-0.2947 1.07936,-1.59503 1.07936,-1.97508 0,-0.2234 0.11906,-0.40618 0.26458,-0.40618 0.14552,0 0.26458,-0.21585 0.26458,-0.47967 0,-0.26382 0.35719,-0.82187 0.79375,-1.24013 0.43656,-0.41825 0.80454,-0.94654 0.81772,-1.17398 0.0132,-0.22743 0.34591,-1.00883 0.73939,-1.73643 0.60986,-1.12771 0.83082,-1.32292 1.49739,-1.32292 1.01572,0 1.13957,0.72505 0.40085,2.34664 -0.29971,0.65791 -0.54493,1.44086 -0.54493,1.73989 0,0.29902 -0.11906,0.54368 -0.26458,0.54368 -0.14553,0 -0.26459,0.17859 -0.26459,0.39687 0,0.21829 -0.11906,0.39688 -0.26458,0.39688 -0.14552,0 -0.26458,0.12836 -0.26458,0.28525 0,0.15689 -0.42347,1.16568 -0.94104,2.24175 -0.51757,1.07607 -0.94277,2.04903 -0.9449,2.16214 -0.002,0.11311 -0.20373,0.42651 -0.44802,0.69645 -0.2443,0.26994 -0.41766,0.53658 -0.38526,0.59253 0.10513,0.18157 -0.26222,1.02233 -0.63933,1.46324 -0.20224,0.23645 -0.33914,0.53411 -0.30424,0.66146 0.11374,0.415 -0.33418,1.42218 -0.63247,1.42218 -0.15997,0 -0.21486,0.076 -0.12198,0.16888 0.0929,0.0929 -0.22957,0.89655 -0.71655,1.78593 -0.48699,0.88938 -1.04538,2.18261 -1.24088,2.87383 -0.19549,0.69122 -0.44851,1.25677 -0.56227,1.25677 -0.11374,0 -0.20726,0.20836 -0.2078,0.46302 -5.3e-4,0.25466 -0.22438,0.82936 -0.49742,1.27711 -0.27304,0.44774 -0.62925,1.43338 -0.79158,2.19031 -0.16233,0.75693 -0.46546,1.64075 -0.67363,1.96404 -0.20817,0.3233 -0.46008,1.0343 -0.5598,1.58 -0.0997,0.5457 -0.27666,0.99219 -0.39319,0.99219 -0.29808,0 -0.60006,1.98615 -0.39852,2.62114 0.092,0.28973 0.40617,0.60264 0.69825,0.69534 0.75495,0.23961 0.553,1.23207 -0.29354,1.44263 -0.3638,0.0905 -0.89958,0.1138 -1.19063,0.0518 z m 253.45581,-0.51192 c -0.64985,-0.46011 -0.91485,-1.9519 -0.95174,-5.35734 -0.0257,-2.37915 0.0963,-4.16824 0.36561,-5.35781 0.40277,-1.77938 0.28085,-2.20679 -0.37603,-1.31832 -0.35362,0.47828 -1.85867,1.53366 -2.02604,1.42071 -0.051,-0.0344 -0.32748,0.41166 -0.61429,0.99135 -0.83949,1.69678 -4.50236,4.26407 -6.08372,4.26407 -0.61743,0 -0.75128,-0.13574 -0.89633,-0.90887 -0.20899,-1.11397 -0.0124,-1.47238 0.80799,-1.47238 0.34663,0 0.70381,-0.11906 0.79375,-0.26458 0.0899,-0.14553 0.48987,-0.26459 0.88873,-0.26459 0.90818,0 1.36022,-0.43766 1.36022,-1.31696 0,-0.99118 2.03531,-3.71012 2.77728,-3.71012 0.51126,0 1.71643,-0.65116 1.71858,-0.92854 0,-0.1469 0.24481,-0.41868 0.54149,-0.60397 0.29668,-0.18528 0.47895,-0.43474 0.40502,-0.55435 -0.0739,-0.11961 0.14671,-0.48157 0.49033,-0.80436 0.34359,-0.32279 0.81595,-1.08424 1.04968,-1.6921 0.2554,-0.66418 0.68913,-1.22727 1.08694,-1.41106 0.36406,-0.16821 0.66193,-0.20912 0.66193,-0.0909 0,0.11821 0.22794,0.15532 0.50652,0.0825 0.82923,-0.21685 1.05579,0.62899 0.65111,2.43096 -0.19608,0.87312 -0.42775,2.42093 -0.51477,3.43958 -0.087,1.01865 -0.24897,2.74505 -0.35986,3.83646 -0.11092,1.09141 -0.17029,3.54112 -0.13195,5.44381 0.0383,1.90269 -0.01,3.58438 -0.10684,3.73707 -0.23426,0.36847 -1.68976,0.66033 -2.04361,0.4098 z M 46.062776,244.02588 c -0.36796,-0.45993 -0.6667,-1.48483 -0.75193,-2.57969 -0.0396,-0.50932 -0.17592,-2.11667 -0.30282,-3.57188 -0.2237,-2.56518 -0.21213,-2.66359 0.37962,-3.22851 0.33569,-0.32047 0.61035,-0.70742 0.61035,-0.85989 0,-0.15247 0.18115,-0.27722 0.40255,-0.27722 0.2214,0 0.53817,-0.29766 0.70392,-0.66146 0.16577,-0.3638 0.3976,-0.66146 0.5152,-0.66146 0.11759,0 0.14445,-0.18073 0.0597,-0.40162 -0.16021,-0.4175 0.36993,-1.97963 0.67182,-1.97963 0.0948,0 0.39674,-0.41672 0.67103,-0.92604 0.27428,-0.50932 0.57047,-0.92604 0.65818,-0.92604 0.0877,0 0.51274,-0.32742 0.94451,-0.7276 0.6408,-0.59394 1.01981,-0.724 2.06305,-0.70796 1.10271,0.017 1.40924,0.15086 2.23453,0.97616 0.83015,0.83014 0.90936,1.01331 0.59962,1.38653 -0.24669,0.29724 -0.70066,0.40888 -1.47025,0.36155 -0.98941,-0.0608 -1.22026,0.0449 -2.0735,0.94959 -0.52808,0.55992 -0.90323,1.07496 -0.83368,1.14451 0.0696,0.0696 -0.16551,0.62472 -0.52239,1.23368 -0.96912,1.65368 -1.58134,5.06901 -1.75729,9.80333 -0.062,1.66835 -0.30791,1.98438 -1.54407,1.98438 -0.54645,0 -1.11261,-0.14883 -1.25814,-0.33073 z m 14.43393,-0.55931 c -1.69026,-0.74872 -2.8725,-2.50993 -3.54442,-5.2802 -0.33753,-1.39162 -0.44032,-5.76681 -0.27774,-11.82143 0.034,-1.26712 -0.0242,-1.44988 -0.45063,-1.41401 -0.7263,0.0611 -1.73704,-0.92483 -1.61227,-1.57268 0.1715,-0.89053 0.3771,-0.99047 2.5277,-1.22879 0.0886,-0.01 0.23867,-1.00012 0.33342,-2.20066 0.31654,-4.01072 0.50038,-5.35656 0.75394,-5.5196 0.13838,-0.089 0.31049,-0.74382 0.38245,-1.45521 0.072,-0.71138 0.24046,-1.40653 0.37443,-1.54478 0.13397,-0.13824 0.24358,-0.63723 0.24358,-1.10886 0,-0.47163 0.1087,-0.92469 0.24156,-1.0068 0.13286,-0.0821 0.32553,-0.65469 0.42816,-1.27239 0.25705,-1.5471 0.83134,-2.5783 1.43591,-2.5783 0.69218,0 0.90012,0.84398 0.57323,2.32664 -0.61476,2.78834 -1.09252,5.85401 -1.20427,7.72752 -0.0651,1.09141 -0.13712,1.98438 -0.16003,1.98438 -0.0229,0 -0.0679,0.98986 -0.1,2.1997 -0.0696,2.62287 0.003,2.69509 2.68966,2.69509 1.00229,0 2.3777,0.18923 3.05647,0.42051 1.26561,0.43124 2.69983,1.79199 2.40003,2.27708 -0.20458,0.33101 -3.34103,0.14555 -3.4604,-0.20462 -0.1282,-0.37608 -4.4879,-0.30293 -4.87487,0.0818 -0.24158,0.2402 -0.33247,2.01623 -0.34585,6.75819 -0.0162,5.7313 0.033,6.51045 0.45098,7.14867 0.25801,0.39396 0.39873,0.71629 0.31271,0.71629 -0.086,0 0.0979,0.35719 0.40879,0.79375 0.77807,1.0927 1.74816,1.03984 2.73602,-0.14908 0.67485,-0.8122 0.74985,-1.0956 0.73414,-2.77388 -0.0154,-1.64722 0.15027,-2.62884 1.0038,-5.94681 0.30458,-1.18401 0.76094,-1.92915 1.38659,-2.26398 1.04099,-0.55713 1.14933,0.25165 0.58764,4.38687 -0.45628,3.35917 -0.20239,5.87631 0.65881,6.53172 0.2385,0.1815 0.35425,0.23471 0.25724,0.11824 -0.097,-0.11647 0.022,-0.41599 0.26458,-0.6656 1.59344,-1.63995 2.18181,-2.55719 2.02952,-3.16396 -0.10206,-0.40664 9e-5,-0.8095 0.28512,-1.12445 0.28062,-0.31009 0.51475,-1.21178 0.63589,-2.449 0.10774,-1.10037 0.38242,-2.23046 0.62703,-2.57968 0.25315,-0.36144 0.43529,-1.13852 0.43529,-1.8572 0,-0.85436 0.12248,-1.28274 0.39687,-1.38804 0.21828,-0.0838 0.39688,-0.33757 0.39688,-0.56402 0,-0.22645 0.3054,-0.52784 0.67868,-0.66976 0.88655,-0.33707 0.84099,-0.34977 1.20954,0.33728 0.43519,0.81129 0.32854,2.58675 -0.29799,4.96093 -0.28801,1.09141 -0.77003,3.09792 -1.07116,4.45893 -0.54084,2.44443 -1.32227,4.04764 -2.55647,5.24495 -0.40369,0.39163 -0.49011,0.61764 -0.27023,0.70672 0.2333,0.0945 0.22395,0.13677 -0.0336,0.15185 -0.19628,0.0115 -0.69054,0.37807 -1.09835,0.81464 -0.58783,0.62927 -0.96355,0.79375 -1.8132,0.79375 -0.88802,0 -1.23458,-0.16768 -2.02167,-0.97812 -0.88012,-0.90622 -0.96046,-0.93785 -1.09319,-0.43027 -0.35877,1.37192 -3.05151,2.2849 -4.65031,1.57669 z M 561.29482,243.629 c -0.10986,-0.10914 -0.36174,-0.58539 -0.55978,-1.05833 -0.19802,-0.47294 -0.48517,-0.8599 -0.63813,-0.8599 -0.15292,0 -0.27807,-0.18709 -0.27807,-0.41577 0,-0.46545 -0.61497,-1.17173 -1.02024,-1.17173 -0.43121,0 -1.31074,-1.28335 -1.50447,-2.19523 -0.099,-0.46611 -0.33308,-1.02607 -0.52014,-1.24435 -0.4693,-0.54757 -1.19036,-3.51212 -1.17968,-4.85002 0.009,-1.09301 0.68419,-2.29373 1.29038,-2.29373 0.15856,0 0.28831,-0.11906 0.28831,-0.26458 0,-0.14553 0.19545,-0.26459 0.43437,-0.26459 0.38918,0 0.41484,-0.33356 0.24675,-3.20712 -0.10316,-1.76391 -0.28607,-3.40102 -0.40645,-3.63802 -0.24945,-0.49108 -1.08625,-6.217 -1.27135,-8.69913 -0.1142,-1.53145 -0.16989,-1.65364 -0.75393,-1.65364 -0.34684,0 -0.62997,-0.14883 -0.62915,-0.33073 0.003,-0.76005 0.56747,-2.28004 1.05463,-2.8417 0.45563,-0.52537 0.58031,-0.55596 0.96517,-0.23679 0.59433,0.49289 1.15371,1.88693 1.15371,2.87514 0,0.44321 0.10578,1.01258 0.23506,1.26527 0.34631,0.67691 1.32472,5.74822 1.92633,9.98443 0.76763,5.40543 0.59798,4.9457 1.74892,4.73954 0.54147,-0.097 1.16308,-0.32358 1.38136,-0.50351 0.4136,-0.34093 2.89706,-0.37342 3.83646,-0.0502 0.84026,0.28911 1.62541,1.76989 2.12204,4.00214 0.37684,1.69378 0.42542,2.70609 0.2703,5.63294 -0.21844,4.12199 -0.28107,4.56987 -0.85141,6.08897 -0.34893,0.92937 -0.54247,1.12448 -1.1154,1.12448 -1.0608,0 -1.43867,-1.09495 -1.10879,-3.21276 0.54176,-3.47792 0.26964,-10.80427 -0.42265,-11.37881 -0.52607,-0.4366 -1.72963,-0.45935 -2.15413,-0.0407 -0.1923,0.18963 -0.61634,0.34479 -0.94231,0.34479 -0.32597,0 -0.8604,0.24943 -1.18761,0.55428 -0.5302,0.49395 -0.5761,0.71717 -0.4218,2.05052 0.45802,3.95719 1.19896,7.74833 1.69527,8.67437 0.60721,1.13293 0.71014,2.47237 0.22711,2.95541 -0.35173,0.35174 -1.59832,0.42942 -1.91068,0.11906 z m -2.54725,-9.58112 c -0.18101,-1.32434 -0.42111,-2.46478 -0.53362,-2.53431 -0.1125,-0.0695 -0.34673,0.30437 -0.52048,0.83089 -0.40728,1.23402 0.10559,3.99601 0.7697,4.14527 0.23629,0.0531 0.47098,0.0672 0.52154,0.0313 0.0505,-0.0359 -0.0562,-1.14881 -0.23714,-2.47315 z m 31.37974,9.45385 c -0.23194,-0.12979 -0.35346,-0.34636 -0.27009,-0.48127 0.0834,-0.13491 -0.01,-0.18346 -0.20645,-0.1079 -0.22754,0.0873 -0.49102,-0.20151 -0.7229,-0.79251 -0.33866,-0.86315 -0.43741,-0.92417 -1.37549,-0.84996 -0.55583,0.044 -1.01063,-0.02 -1.01063,-0.14224 0,-0.12219 -0.28876,-0.35375 -0.64172,-0.51456 -0.51816,-0.23608 -0.91299,-0.18063 -2.05052,0.28796 -1.33919,0.55168 -1.45872,0.55932 -2.41914,0.15464 -1.46243,-0.61622 -1.85811,-1.71574 -1.81141,-5.03366 0.0204,-1.45521 0.10348,-2.95428 0.18447,-3.33128 0.0941,-0.43797 0.003,-0.80494 -0.25154,-1.01642 -0.33031,-0.27413 -0.51412,-0.20656 -1.07008,0.39335 -0.36923,0.39838 -0.67131,0.88715 -0.67131,1.08616 0,0.19901 -0.10498,0.56857 -0.23333,0.82126 -0.39944,0.78655 -0.825,2.92724 -0.825,4.15017 0,1.84631 -0.33112,2.42474 -1.50035,2.62089 -0.84709,0.14211 -1.09357,0.073 -1.50346,-0.42181 -0.4123,-0.49768 -0.46054,-0.84472 -0.30324,-2.18247 0.10284,-0.87487 0.16348,-2.88631 0.13472,-4.46986 l -0.0523,-2.87918 0.75243,0.1911 c 1.64017,0.41658 2.47218,0.38059 2.47218,-0.10696 0,-0.7251 0.74782,-2.04094 1.39531,-2.45516 1.14514,-0.73259 1.52104,-0.7611 1.77308,-0.13445 0.16909,0.42046 0.24249,0.46371 0.25442,0.14994 0.009,-0.24254 0.16304,-0.48973 0.34179,-0.54931 0.5493,-0.1831 1.16583,0.65379 1.66055,2.25403 0.39354,1.2729 0.4422,2.03527 0.29118,4.56157 -0.13322,2.22789 -0.0933,3.19197 0.15007,3.63105 0.1823,0.32879 0.31083,0.67303 0.28564,0.76497 -0.0757,0.27635 2.16675,0.11862 2.37673,-0.16717 0.10692,-0.14552 0.19621,-0.62345 0.19844,-1.06207 0.004,-0.70382 0.34655,-1.81629 1.26653,-4.10818 0.14843,-0.36978 0.46088,-0.83085 0.69432,-1.02458 0.23344,-0.19374 0.42444,-0.46525 0.42444,-0.60334 0,-0.34786 0.69194,-1.00704 1.05709,-1.00704 0.16563,0 0.70872,-0.31087 1.20685,-0.69081 0.94048,-0.71735 1.63737,-0.73012 2.57114,-0.0471 0.5053,0.36958 0.44273,0.87953 -0.70744,5.76502 -0.55997,2.37855 -0.54875,4.13692 0.0284,4.45993 0.3462,0.19374 0.78951,0.0111 1.89515,-0.7806 1.66018,-1.18882 1.8863,-1.24509 1.8863,-0.46941 0,0.64161 -0.97684,2.34633 -1.34451,2.34633 -0.13364,0 -0.24672,0.14883 -0.2513,0.33073 -0.023,0.91332 -3.09269,2.01222 -4.07906,1.46023 z m 11.89257,-0.28005 c -0.60537,-0.79445 -0.9003,-1.50962 -1.05765,-2.56461 -0.0916,-0.61429 -0.29231,-1.43218 -0.44595,-1.81753 -0.15367,-0.38535 -0.34142,-2.47353 -0.41722,-4.64039 -0.12055,-3.44531 -0.2027,-4.00461 -0.65466,-4.45656 -0.40894,-0.40894 -0.47935,-0.71876 -0.33734,-1.48422 0.0987,-0.53206 0.342,-1.14875 0.54067,-1.37041 0.28832,-0.3217 0.35613,-1.89648 0.33613,-7.8052 -0.0257,-7.546 0.16526,-9.6954 1.03798,-11.69381 0.24019,-0.55003 0.44577,-1.05958 0.45686,-1.13234 0.0111,-0.0728 0.0911,-0.25136 0.17793,-0.39688 0.0868,-0.14552 0.23387,-0.58329 0.32684,-0.97282 0.21088,-0.88346 0.94758,-1.06678 1.55776,-0.38762 0.53383,0.59419 0.54214,0.69661 0.18267,2.25576 -0.14705,0.63794 -0.34663,1.53091 -0.44347,1.98437 -0.0968,0.45346 -0.18976,4.53414 -0.2065,9.06816 l -0.0305,8.24368 0.94342,-0.13994 c 0.51888,-0.077 1.46455,-0.36358 2.10151,-0.63691 0.63696,-0.27334 1.61009,-0.49697 2.16252,-0.49697 0.6782,0 1.25306,-0.20924 1.77009,-0.64428 0.42111,-0.35435 1.07262,-0.72132 1.4478,-0.81548 0.60303,-0.15135 0.7176,-0.0638 0.98795,0.75541 0.21243,0.64372 0.53803,1.00756 1.06643,1.19176 0.83661,0.29164 1.73768,1.44659 1.46846,1.8822 -0.19642,0.31784 -1.01669,0.36916 -1.30423,0.0816 -0.10705,-0.10703 -0.54362,-0.21217 -0.97015,-0.23362 l -0.77552,-0.039 -0.007,2.28415 c -0.004,1.25628 -0.13677,3.47476 -0.29554,4.92997 -0.1588,1.45521 -0.31401,3.33202 -0.34489,4.17068 -0.0501,1.35967 -0.005,1.50851 0.41902,1.37403 0.83013,-0.26347 0.90395,0.98053 0.13084,2.20523 -0.73562,1.16528 -1.03246,1.34171 -1.95927,1.16454 -1.64033,-0.31357 -1.95296,-2.9042 -1.14614,-9.49728 0.30633,-2.50336 0.55697,-5.1525 0.55697,-5.88698 0,-1.22776 -0.0505,-1.33542 -0.62577,-1.33542 -0.34419,0 -0.9285,0.23812 -1.29852,0.52916 -0.36999,0.29104 -0.80759,0.52917 -0.97242,0.52917 -0.16484,0 -0.62233,0.22105 -1.01661,0.49124 -0.39428,0.27018 -1.04431,0.68964 -1.44449,0.93214 -0.72496,0.4393 -0.72761,0.45175 -0.72761,3.43759 0,4.85528 0.24742,6.97907 0.8308,7.13162 0.41047,0.10735 0.49212,0.39085 0.49212,1.70857 0,1.00082 -0.13047,1.68815 -0.35594,1.87529 -0.57457,0.47684 -1.86243,0.60933 -2.1576,0.22196 z M 89.257376,242.80094 c -0.58209,-0.10621 -1.35599,-0.36096 -1.7198,-0.56612 -0.3638,-0.20515 -0.77713,-0.37722 -0.9185,-0.38238 -0.58737,-0.0214 -1.09612,-2.23579 -0.90012,-3.91782 0.28589,-2.45349 0.73005,-3.94791 1.27314,-4.28355 0.15449,-0.0955 0.2809,-0.40471 0.2809,-0.68716 0,-0.28246 0.092,-0.51355 0.20442,-0.51355 0.11242,0 0.42092,-0.40203 0.68553,-0.89338 0.40773,-0.75711 0.66468,-0.91854 1.6846,-1.05834 3.20102,-0.43874 4.30462,-0.0296 4.30462,1.5957 0,0.79685 -0.90766,1.94352 -1.53841,1.94352 -0.17252,0 -0.31368,0.18233 -0.31368,0.40517 0,0.22285 -0.17859,0.47372 -0.39687,0.55748 -0.21828,0.0838 -0.39688,0.31013 -0.39688,0.50303 0,0.19291 -0.20835,0.41801 -0.46302,0.50023 -0.81012,0.26154 -2.44739,1.95485 -2.44739,2.53115 0,0.30541 0.29168,0.8256 0.64817,1.15599 0.63815,0.59142 0.6801,0.59487 2.71198,0.2233 1.13509,-0.20757 2.42099,-0.53569 2.85756,-0.72915 0.43656,-0.19346 1.32953,-0.41732 1.98437,-0.49746 0.65484,-0.0802 1.54781,-0.21217 1.98438,-0.29338 0.43656,-0.0812 1.583404,-0.21157 2.548534,-0.28969 1.66924,-0.13511 1.78854,-0.10562 2.44739,0.60492 0.38094,0.41083 0.69262,0.95653 0.69262,1.21268 0,0.49905 -0.68573,0.61689 -2.84427,0.48879 -0.61847,-0.0367 -1.12451,0.0324 -1.12453,0.15354 -3e-5,0.12115 -0.622114,0.25767 -1.382404,0.30338 -0.76029,0.0457 -1.52595,0.2023 -1.70146,0.34796 -0.17552,0.14567 -1.01196,0.33369 -1.85875,0.41783 -0.89292,0.0887 -1.85541,0.37412 -2.29141,0.67945 -0.83903,0.58758 -2.41416,0.77918 -4.01072,0.48786 z m -11.30208,-1.02402 c -0.82902,-0.9504 -1.05427,-1.69943 -0.87352,-2.90473 0.12238,-0.81611 0.32501,-1.22886 0.64425,-1.31234 0.37166,-0.0972 0.47749,-0.44783 0.52398,-1.73604 0.032,-0.88784 0.17032,-1.82365 0.30729,-2.07958 0.13697,-0.25594 0.24903,-0.82332 0.24903,-1.26086 0,-0.43755 0.11907,-0.86912 0.26459,-0.95906 0.14552,-0.0899 0.26458,-0.51543 0.26458,-0.94554 0,-0.60137 0.19865,-0.89975 0.8599,-1.29161 0.47294,-0.28028 1.02938,-0.65971 1.23654,-0.84319 0.85081,-0.75357 4.24344,-0.67075 4.2515,0.10378 0.001,0.10914 0.21452,0.19844 0.47418,0.19844 0.44224,0 1.56801,1.48765 1.31628,1.73938 -0.0634,0.0634 -0.72864,-0.001 -1.47833,-0.14326 -1.1906,-0.22579 -1.48146,-0.18865 -2.29862,0.29348 -0.51454,0.30359 -1.06025,0.785 -1.21267,1.0698 -0.37797,0.70626 -1.03211,3.27268 -1.03211,4.04935 0,0.34812 -0.11906,0.70652 -0.26459,0.79646 -0.14552,0.0899 -0.26458,0.62572 -0.26458,1.19062 0,0.56491 -0.10788,1.09378 -0.23974,1.17528 -0.13186,0.0815 -0.17597,0.39206 -0.098,0.69016 0.0779,0.29809 -0.0704,1.01235 -0.32961,1.58723 -0.37962,0.84186 -0.60999,1.04525 -1.1839,1.04525 -0.39191,0 -0.8943,-0.20836 -1.11644,-0.46302 z M 545.4639,241.18566 c -0.71787,-0.83841 -0.81532,-1.73769 -0.3269,-3.01659 0.61061,-1.59885 0.43477,-1.97241 -0.54176,-1.15095 -0.43103,0.3626 -1.37901,0.92579 -2.10661,1.25154 -0.72761,0.32575 -1.73964,0.78186 -2.24896,1.01359 -1.30172,0.59226 -4.00042,0.5806 -4.60145,-0.0199 -0.25487,-0.25466 -0.63352,-0.46302 -0.8414,-0.46302 -0.20788,0 -0.37798,-0.11906 -0.37798,-0.26458 0,-0.34031 -1.50538,-0.34692 -1.71514,-0.008 -0.17962,0.29066 -2.54693,1.43403 -2.84361,1.37343 -0.10623,-0.0217 -0.81404,0.20529 -1.57292,0.50441 -1.06381,0.41928 -1.74662,0.51209 -2.98185,0.40525 -0.88117,-0.0762 -1.67952,-0.14314 -1.77417,-0.14875 -0.53533,-0.0317 -0.75062,-3.44559 -0.83499,-13.23935 -0.0508,-5.89359 -0.0185,-11.01328 0.0717,-11.37708 0.0913,-0.36818 0.50189,-0.8242 0.92607,-1.0285 0.70318,-0.33869 0.72602,-0.3934 0.29554,-0.70818 -0.32181,-0.23531 -0.41029,-0.51825 -0.28528,-0.91214 0.14709,-0.46343 0.31314,-0.53792 0.88125,-0.39533 0.385,0.0966 0.7646,0.28019 0.84352,0.40791 0.0789,0.12772 0.6159,0.064 1.19327,-0.14166 1.65272,-0.58862 2.14818,-0.48931 3.29872,0.66123 0.58208,0.58209 1.15448,1.05834 1.27199,1.05834 0.25206,0 1.80953,2.07072 2.56447,3.40961 0.29104,0.51616 0.72086,1.13412 0.95517,1.37325 0.23432,0.23913 0.68067,1.31464 0.99192,2.39002 0.31126,1.07538 0.68406,2.31802 0.82847,2.76141 0.14438,0.44339 0.33975,1.36937 0.4341,2.05774 0.17891,1.30533 0.53999,1.80569 0.89202,1.23609 0.26278,-0.42517 3.0077,-0.88391 3.13025,-0.52315 0.0485,0.14279 0.214,0.25961 0.36772,0.25961 0.52147,0 0.95978,0.91819 0.82095,1.71979 -0.31816,1.83721 -1.37528,3.20776 -3.77539,4.89479 -0.71432,0.50209 -0.9497,0.86177 -0.97695,1.49283 -0.0496,1.14754 0.74681,1.54682 2.64113,1.32419 1.14466,-0.13454 1.47111,-0.0881 1.59186,0.22666 0.15021,0.39141 0.75745,0.58069 0.63355,0.19747 -0.11163,-0.3452 1.42692,-1.88633 1.7568,-1.75975 0.17354,0.0666 0.5773,-0.17993 0.8972,-0.54786 0.31991,-0.36792 0.74028,-0.66895 0.93417,-0.66895 0.59298,0 1.51559,-1.19507 1.67341,-2.16763 0.12007,-0.73985 0.0198,-1.0603 -0.51009,-1.63219 -1.04968,-1.13264 -1.11871,-2.43759 -0.16055,-3.03597 0.68561,-0.42818 1.29405,0.002 1.29405,0.91506 0,0.38277 0.15539,0.62906 0.39688,0.62906 0.21828,0 0.39687,0.17859 0.39687,0.39687 0,0.21829 0.11906,0.39688 0.26458,0.39688 0.14552,0 0.26459,0.18562 0.26459,0.41249 0,0.22687 0.12427,0.33568 0.27617,0.24181 0.42061,-0.25995 1.07725,0.41117 1.63647,1.67254 0.673,1.51797 0.42569,3.75553 -0.56165,5.08149 -1.19663,1.60708 -3.96621,3.89161 -4.79793,3.95766 -0.0768,0.006 -0.34195,-0.22521 -0.58925,-0.51402 z m -16.86719,-2.67356 c 0,-0.0858 0.28966,-0.28736 0.64214,-0.44796 0.87,-0.3964 1.63174,-1.01551 3.09623,-2.51653 1.48331,-1.5203 2.26418,-3.83798 1.99965,-5.93532 -0.0876,-0.69463 -0.28758,-2.27501 -0.44437,-3.51193 -0.15682,-1.23693 -0.51877,-2.75368 -0.80436,-3.37056 -0.28559,-0.61687 -0.51925,-1.2253 -0.51925,-1.35205 0,-0.12675 -0.41671,-0.67231 -0.92604,-1.21235 -0.50932,-0.54004 -0.92604,-1.20734 -0.92604,-1.48291 0,-0.27556 -0.23693,-0.62782 -0.52652,-0.78281 -0.28961,-0.15498 -0.49797,-0.42706 -0.46302,-0.60462 0.0349,-0.17756 -0.0881,-0.29213 -0.27342,-0.25461 -0.18733,0.0379 -0.40611,-0.27764 -0.49273,-0.71069 -0.32515,-1.62583 -1.37605,-1.05216 -1.90395,1.03935 -0.73416,2.90873 -1.11805,6.34657 -1.02042,9.13833 0.0558,1.59511 0.1877,3.09774 0.29314,3.33918 0.10546,0.24143 0.0797,0.8449 -0.0573,1.34104 -0.18468,0.66884 -0.15539,1.03018 0.11322,1.39754 0.47757,0.65311 0.4595,1.82012 -0.0432,2.79228 -0.29233,0.56534 -0.35665,1.15237 -0.23047,2.10354 l 0.17502,1.31936 1.15522,-0.0662 c 0.63537,-0.0364 1.15581,-0.13634 1.15655,-0.22212 z m 20.22004,-2.89564 c 0.53739,-1.80955 0.0453,-3.65201 -0.63561,-2.37977 -0.15796,0.29512 -0.205,0.53658 -0.10456,0.53658 0.10043,0 -0.0302,0.23519 -0.29036,0.52263 -0.26469,0.29247 -0.51861,1.07043 -0.5766,1.76656 -0.057,0.68417 -0.20357,1.37173 -0.32573,1.5279 -0.12213,0.15617 -0.21847,0.50007 -0.21405,0.7642 0.0138,0.82852 1.74244,-1.37606 2.14691,-2.7381 z m -9.70156,-4.57335 c 0.71877,-1.05579 0.73695,-1.23859 0.12319,-1.23859 -0.45363,0 -1.37996,1.22626 -1.37996,1.82676 0,0.58114 0.67617,0.26469 1.25677,-0.58817 z m -354.22781,10.29801 c -0.074,-0.074 -0.54699,-0.19125 -1.05104,-0.2605 -0.83266,-0.11441 -1.6727,-0.30272 -2.57289,-0.57676 -0.18342,-0.0558 -0.42155,-0.11653 -0.52916,-0.13486 -0.71423,-0.12166 -1.1217,-0.61478 -1.1217,-1.35747 0,-0.45569 0.073,-0.75553 0.16222,-0.66631 0.0892,0.0892 0.83336,-0.51903 1.65365,-1.35167 0.82028,-0.83264 1.96767,-1.86137 2.54975,-2.28608 1.48518,-1.08361 2.23906,-1.80991 2.24439,-2.16228 0.003,-0.16613 0.30222,-0.37676 0.66603,-0.46807 0.3638,-0.0913 0.66146,-0.34234 0.66146,-0.55785 0,-0.2155 0.23812,-0.39183 0.52916,-0.39183 0.29104,0 0.52917,-0.16038 0.52917,-0.35639 0,-0.19602 0.20836,-0.60511 0.46302,-0.9091 2.12751,-2.53959 2.98637,-3.82927 3.38754,-5.08677 0.25494,-0.79912 0.54313,-1.57201 0.64043,-1.71753 0.0973,-0.14552 0.16842,-0.74083 0.15806,-1.32292 l -0.0188,-1.05833 -2.04813,-0.13229 c -1.50759,-0.0974 -2.08189,-0.044 -2.17604,0.20241 -0.0703,0.18408 -0.4286,0.44902 -0.79613,0.58876 -0.36753,0.13974 -0.66824,0.36285 -0.66824,0.4958 0,0.13295 -0.14883,0.2362 -0.33073,0.22945 -1.16596,-0.0433 -1.52135,0.1009 -1.52135,0.61733 0,0.30043 -0.36147,0.8504 -0.80326,1.22214 -0.44178,0.37174 -0.98062,1.0189 -1.19742,1.43813 -0.4954,0.958 -1.10587,0.97671 -1.46019,0.0448 -0.31571,-0.83036 0.0837,-1.82856 0.82589,-2.06412 0.25041,-0.0795 0.52603,-0.49817 0.61248,-0.93043 0.14266,-0.71334 0.25431,-0.78592 1.20898,-0.78592 0.57849,0 1.14701,-0.15133 1.26339,-0.3363 0.26634,-0.42333 1.52717,-0.98661 2.2084,-0.98661 0.2842,0 0.52046,-0.14883 0.52504,-0.33073 0.0133,-0.52794 1.20264,-1.25184 2.43505,-1.48208 1.78959,-0.33433 2.96752,-0.0878 3.81598,0.79874 0.69732,0.7286 0.75166,0.9372 0.74595,2.86337 -0.005,1.59036 -0.1133,2.19589 -0.46303,2.58234 -0.25127,0.27765 -0.45685,0.72526 -0.45685,0.9947 0,0.55062 -1.86,3.51977 -2.65646,4.24056 -0.2852,0.2581 -0.51854,0.55764 -0.51854,0.66565 0,0.25163 -1.26531,1.74612 -2.09186,2.47075 -0.35016,0.30699 -0.93244,0.88226 -1.29395,1.2784 -0.36151,0.39613 -0.77802,0.64562 -0.92558,0.55443 -0.14756,-0.0912 -0.19504,-0.0473 -0.10551,0.0976 0.21965,0.35539 -1.33567,1.47929 -1.71915,1.24229 -0.20359,-0.12583 -0.24635,-0.0379 -0.12956,0.26646 0.12555,0.32718 -0.0465,0.5799 -0.61482,0.9033 -0.98864,0.56255 -1.01937,1.0849 -0.0649,1.10293 0.40018,0.008 1.08479,0.033 1.52135,0.0565 1.74675,0.0941 7.11945,-0.31831 7.92032,-0.60791 1.01814,-0.36816 3.32447,-0.0976 3.32447,0.38998 0,0.50058 -0.57156,0.96275 -1.19062,0.96275 -0.3056,0 -0.66874,0.10704 -0.80698,0.23786 -0.54796,0.51854 -10.35215,2.14086 -10.71927,1.77374 z m 433.40437,-1.67014 c -0.72133,-0.26523 -1.32291,-0.94447 -1.32291,-1.49372 0,-0.38814 -0.0809,-0.46013 -0.28636,-0.25471 -0.37708,0.37707 -1.72286,-0.27912 -2.12905,-1.03811 -0.1747,-0.32644 -0.24148,-1.23017 -0.16306,-2.20701 0.11231,-1.39942 0.30247,-1.89615 1.23449,-3.22483 1.12128,-1.59847 2.12251,-2.3814 2.63803,-2.0628 0.15737,0.0973 0.6573,-0.24587 1.11096,-0.76254 0.70326,-0.80096 0.99144,-0.9394 1.95561,-0.9394 0.67869,0 1.26156,0.15752 1.45781,0.39396 0.17981,0.21668 0.40282,0.34706 0.49559,0.28974 0.0927,-0.0573 0.57589,0.29758 1.07365,0.78867 0.79647,0.78579 0.90154,1.04687 0.8758,2.17636 -0.0574,2.51876 -2.77442,6.4703 -5.50252,8.00258 -0.50874,0.28574 -0.9511,0.51012 -0.98306,0.49863 -0.032,-0.0115 -0.23669,-0.0866 -0.45498,-0.16682 z m 3.2738,-5.25013 c 0.37272,-0.66687 0.75692,-1.65093 0.85376,-2.1868 l 0.17608,-0.97432 -0.67535,0.62145 c -0.37142,0.34179 -0.81598,0.99664 -0.98788,1.45521 -0.1719,0.45857 -0.4088,1.07188 -0.52644,1.36292 -0.53901,1.33347 -0.54099,1.4816 -0.0161,1.20074 0.27408,-0.14669 0.8033,-0.81233 1.17602,-1.4792 z m -2.75394,-1.9531 c 0.36592,-0.68374 0.34539,-0.82197 -0.0969,-0.65225 -0.41532,0.15938 -0.767,1.16402 -0.40749,1.16402 0.12679,0 0.35378,-0.2303 0.50441,-0.51177 z m 6.60797,6.18113 c -0.27927,-0.3365 -0.28337,-0.67802 -0.0214,-1.78594 0.17811,-0.75343 0.48892,-2.08425 0.69067,-2.95738 0.68516,-2.96541 1.24126,-4.10104 2.00816,-4.10104 0.48929,0 0.62851,-0.25901 0.53329,-0.99218 -0.0236,-0.18191 0.20939,-0.33073 0.51776,-0.33073 0.47128,0 0.54698,0.1336 0.47464,0.83764 -0.0488,0.47527 0.0478,0.88236 0.22341,0.94102 0.17024,0.0569 1.06321,-0.52875 1.98438,-1.30135 3.38,-2.83484 5.45986,-3.69895 6.68795,-2.77861 0.58836,0.44093 1.16165,2.77725 1.18764,4.83998 0.0201,1.59427 0.54641,2.22382 1.8592,2.22382 1.06772,0 2.92028,-0.53011 2.92028,-0.83564 0,-0.12248 0.17508,-0.2227 0.38905,-0.2227 0.21396,0 1.03976,-0.29765 1.83512,-0.66146 1.41809,-0.64865 2.55035,-0.85618 2.52608,-0.46302 -0.007,0.10914 -0.49114,0.55563 -1.07648,0.99219 -0.58534,0.43656 -1.50254,1.15094 -2.03827,1.5875 -0.53573,0.43656 -1.56935,1.09141 -2.29696,1.45521 -0.7276,0.3638 -1.3626,0.75075 -1.4111,0.8599 -0.0485,0.10914 -0.86831,0.19843 -1.82176,0.19843 -1.50924,0 -1.81285,-0.0856 -2.34656,-0.66146 -0.33716,-0.3638 -0.72486,-0.66145 -0.86154,-0.66145 -0.32779,0 -0.52046,-0.82426 -0.73684,-3.15247 -0.10316,-1.10986 -0.34041,-2.07898 -0.56359,-2.30218 -0.33758,-0.33756 -0.48879,-0.30566 -1.21684,0.25672 -1.99843,1.54368 -5.32122,5.18421 -4.75197,5.20634 0.11906,0.005 0.004,0.16955 -0.25559,0.36649 -0.25961,0.19694 -0.69456,0.99 -0.96655,1.76234 -0.27199,0.77234 -0.70741,1.55992 -0.96761,1.75018 -0.64971,0.47508 -2.08539,0.43488 -2.50452,-0.0701 z m -55.95909,-11.44094 c 0.1225,-0.38592 0.0246,-0.62582 -0.33374,-0.81758 -0.2789,-0.14926 -0.57894,-0.19953 -0.66675,-0.11171 -0.29345,0.29344 -0.70366,-1.25502 -0.70366,-2.65614 0,-1.59531 0.3066,-2.02007 1.45812,-2.02007 0.76419,0 0.84693,0.093 1.15628,1.30009 0.28527,1.11299 0.27342,1.41571 -0.0823,2.10353 -0.22852,0.44189 -0.41548,1.15951 -0.41548,1.59471 0,0.4352 -0.13181,0.87274 -0.29292,0.97231 -0.19584,0.12104 -0.23548,0 -0.11959,-0.36514 z"
       id="path1842" />
  </g>
</svg>
