<?xml version="1.0" encoding="UTF-8" standalone="no"?>
<!DOCTYPE svg PUBLIC "-//W3C//DTD SVG 1.1//EN"
 "http://www.w3.org/Graphics/SVG/1.1/DTD/svg11.dtd">
<!-- Generated by graphviz version 2.38.0 (20140413.2041)
 -->
<!-- Title: G Pages: 1 -->
<svg width="1110pt" height="1338pt"
 viewBox="0.00 0.00 1109.50 1338.00" xmlns="http://www.w3.org/2000/svg" xmlns:xlink="http://www.w3.org/1999/xlink">
<g id="graph0" class="graph" transform="scale(1 1) rotate(0) translate(4 1334)">
<title>G</title>
<g id="a_graph0"><a xlink:title="Windowing System">
<polygon fill="white" stroke="none" points="-4,4 -4,-1334 1105.5,-1334 1105.5,4 -4,4"/>
</a>
</g>
<!-- ui_PlatformWindow -->
<g id="node1" class="node"><title>ui_PlatformWindow</title>
<g id="a_node1"><a xlink:href="https://cs.chromium.org/chromium/src/ui/platform_window/platform_window.h" xlink:title="ui::PlatformWindow">
<polygon fill="none" stroke="blue" points="418,-916 288,-916 288,-880 418,-880 418,-916"/>
<text text-anchor="middle" x="353" y="-894.3" font-family="Times,serif" font-size="14.00" fill="blue">ui::PlatformWindow</text>
</a>
</g>
</g>
<!-- ui_WaylandWindow -->
<g id="node2" class="node"><title>ui_WaylandWindow</title>
<g id="a_node2"><a xlink:href="https://cs.chromium.org/chromium/src/ui/ozone/platform/wayland/wayland_window.h" xlink:title="ui::WaylandWindow">
<polygon fill="none" stroke="blue" points="302.5,-843 171.5,-843 171.5,-807 302.5,-807 302.5,-843"/>
<text text-anchor="middle" x="237" y="-821.3" font-family="Times,serif" font-size="14.00" fill="blue">ui::WaylandWindow</text>
</a>
</g>
</g>
<!-- ui_PlatformWindow&#45;&gt;ui_WaylandWindow -->
<g id="edge24" class="edge"><title>ui_PlatformWindow&#45;&gt;ui_WaylandWindow</title>
<g id="a_edge24"><a xlink:title="Inheritance">
<path fill="none" stroke="black" d="M316.307,-874.541C299.694,-864.373 280.373,-852.547 264.96,-843.114"/>
<polygon fill="none" stroke="black" points="314.859,-877.758 325.215,-879.994 318.513,-871.788 314.859,-877.758"/>
</a>
</g>
</g>
<!-- ui_X11WindowBase -->
<g id="node3" class="node"><title>ui_X11WindowBase</title>
<g id="a_node3"><a xlink:href="https://cs.chromium.org/chromium/src/ui/platform_window/x11/x11_window_base.h" xlink:title="ui::X11WindowBase">
<polygon fill="none" stroke="blue" points="451.5,-843 320.5,-843 320.5,-807 451.5,-807 451.5,-843"/>
<text text-anchor="middle" x="386" y="-821.3" font-family="Times,serif" font-size="14.00" fill="blue">ui::X11WindowBase</text>
</a>
</g>
</g>
<!-- ui_PlatformWindow&#45;&gt;ui_X11WindowBase -->
<g id="edge25" class="edge"><title>ui_PlatformWindow&#45;&gt;ui_X11WindowBase</title>
<g id="a_edge25"><a xlink:title="Inheritance">
<path fill="none" stroke="black" d="M365.256,-870.63C369.546,-861.402 374.245,-851.29 378.085,-843.029"/>
<polygon fill="none" stroke="black" points="362.029,-869.269 360.988,-879.813 368.377,-872.22 362.029,-869.269"/>
</a>
</g>
</g>
<!-- ui_X11WindowOzone -->
<g id="node4" class="node"><title>ui_X11WindowOzone</title>
<g id="a_node4"><a xlink:href="https://cs.chromium.org/chromium/src/ui/platform_window/x11/x11_window_ozone.h" xlink:title="ui::X11WindowOzone">
<polygon fill="none" stroke="blue" points="456,-770 316,-770 316,-734 456,-734 456,-770"/>
<text text-anchor="middle" x="386" y="-748.3" font-family="Times,serif" font-size="14.00" fill="blue">ui::X11WindowOzone</text>
</a>
</g>
</g>
<!-- ui_X11WindowBase&#45;&gt;ui_X11WindowOzone -->
<g id="edge27" class="edge"><title>ui_X11WindowBase&#45;&gt;ui_X11WindowOzone</title>
<g id="a_edge27"><a xlink:title="Inheritance">
<path fill="none" stroke="black" d="M386,-796.753C386,-787.765 386,-778.029 386,-770.029"/>
<polygon fill="none" stroke="black" points="382.5,-796.813 386,-806.813 389.5,-796.813 382.5,-796.813"/>
</a>
</g>
</g>
<!-- gfx_AcceleratedWidget -->
<g id="node5" class="node"><title>gfx_AcceleratedWidget</title>
<g id="a_node5"><a xlink:href="https://cs.chromium.org/chromium/src/ui/gfx/native_widget_types.h" xlink:title="gfx::AcceleratedWidget">
<ellipse fill="none" stroke="blue" cx="532" cy="-898" rx="95.5831" ry="18"/>
<text text-anchor="middle" x="532" y="-894.3" font-family="Times,serif" font-size="14.00" fill="blue">gfx::AcceleratedWidget</text>
</a>
</g>
</g>
<!-- aura_WindowTreeHost -->
<g id="node6" class="node"><title>aura_WindowTreeHost</title>
<g id="a_node6"><a xlink:href="https://cs.chromium.org/chromium/src/ui/aura/window_tree_host.h" xlink:title="aura::WindowTreeHost">
<polygon fill="none" stroke="blue" points="846.5,-1097 701.5,-1097 701.5,-1061 846.5,-1061 846.5,-1097"/>
<text text-anchor="middle" x="774" y="-1075.3" font-family="Times,serif" font-size="14.00" fill="blue">aura::WindowTreeHost</text>
</a>
</g>
</g>
<!-- aura_WindowTreeHostObserver -->
<g id="node9" class="node"><title>aura_WindowTreeHostObserver</title>
<g id="a_node9"><a xlink:href="https://cs.chromium.org/chromium/src/ui/aura/window_tree_host_observer.h" xlink:title="aura::WindowTreeHostObserver">
<polygon fill="none" stroke="blue" points="871,-989 677,-989 677,-953 871,-953 871,-989"/>
<text text-anchor="middle" x="774" y="-967.3" font-family="Times,serif" font-size="14.00" fill="blue">aura::WindowTreeHostObserver</text>
</a>
</g>
</g>
<!-- aura_WindowTreeHost&#45;&gt;aura_WindowTreeHostObserver -->
<g id="edge17" class="edge"><title>aura_WindowTreeHost&#45;&gt;aura_WindowTreeHostObserver</title>
<g id="a_edge17"><a xlink:title="observers_">
<path fill="none" stroke="black" d="M774,-1060.97C774,-1044.38 774,-1018.88 774,-999.431"/>
<polygon fill="black" stroke="black" points="774,-989.341 778.5,-999.341 774,-994.341 774,-999.341 774,-999.341 774,-999.341 774,-994.341 769.5,-999.341 774,-989.341 774,-989.341"/>
</a>
</g>
<text text-anchor="middle" x="804.5" y="-1021.3" font-family="Times,serif" font-size="14.00"> has list of </text>
</g>
<!-- aura_WindowTreeHostPlatform -->
<g id="node10" class="node"><title>aura_WindowTreeHostPlatform</title>
<g id="a_node10"><a xlink:href="https://cs.chromium.org/chromium/src/ui/aura/window_tree_host_platform.h" xlink:title="aura::WindowTreeHostPlatform">
<polygon fill="none" stroke="blue" points="658.5,-989 465.5,-989 465.5,-953 658.5,-953 658.5,-989"/>
<text text-anchor="middle" x="562" y="-967.3" font-family="Times,serif" font-size="14.00" fill="blue">aura::WindowTreeHostPlatform</text>
</a>
</g>
</g>
<!-- aura_WindowTreeHost&#45;&gt;aura_WindowTreeHostPlatform -->
<g id="edge18" class="edge"><title>aura_WindowTreeHost&#45;&gt;aura_WindowTreeHostPlatform</title>
<g id="a_edge18"><a xlink:title="Inheritance">
<path fill="none" stroke="black" d="M730.761,-1056.38C691.042,-1036.52 632.95,-1007.48 596.328,-989.164"/>
<polygon fill="none" stroke="black" points="729.429,-1059.63 739.939,-1060.97 732.56,-1053.37 729.429,-1059.63"/>
</a>
</g>
</g>
<!-- aura_Window -->
<g id="node17" class="node"><title>aura_Window</title>
<g id="a_node17"><a xlink:href="https://cs.chromium.org/chromium/src/ui/aura/window.h" xlink:title="aura::Window">
<polygon fill="none" stroke="darkorange" points="886.5,-450 791.5,-450 791.5,-414 886.5,-414 886.5,-450"/>
<text text-anchor="middle" x="839" y="-428.3" font-family="Times,serif" font-size="14.00" fill="darkorange">aura::Window</text>
</a>
</g>
</g>
<!-- aura_WindowTreeHost&#45;&gt;aura_Window -->
<g id="edge16" class="edge"><title>aura_WindowTreeHost&#45;&gt;aura_Window</title>
<g id="a_edge16"><a xlink:title="window_">
<path fill="none" stroke="black" d="M819.481,-1060.98C855.222,-1044.32 899,-1015.11 899,-972 899,-972 899,-972 899,-518 899,-494.405 883.378,-472.758 868.077,-457.215"/>
<polygon fill="black" stroke="black" points="860.661,-450.093 870.991,-453.774 864.268,-453.556 867.874,-457.02 867.874,-457.02 867.874,-457.02 864.268,-453.556 864.757,-460.265 860.661,-450.093 860.661,-450.093"/>
</a>
</g>
<text text-anchor="middle" x="939.5" y="-748.3" font-family="Times,serif" font-size="14.00"> points to root </text>
</g>
<!-- aura_WindowTreeHostMus -->
<g id="node7" class="node"><title>aura_WindowTreeHostMus</title>
<g id="a_node7"><a xlink:href="https://cs.chromium.org/chromium/src/ui/aura/mus/window_tree_host_mus.h" xlink:title="aura::WindowTreeHostMus">
<polygon fill="none" stroke="blue" points="816,-916 646,-916 646,-880 816,-880 816,-916"/>
<text text-anchor="middle" x="731" y="-894.3" font-family="Times,serif" font-size="14.00" fill="blue">aura::WindowTreeHostMus</text>
</a>
</g>
</g>
<!-- aura_WindowTreeHostMusDelegate -->
<g id="node8" class="node"><title>aura_WindowTreeHostMusDelegate</title>
<g id="a_node8"><a xlink:href="https://cs.chromium.org/chromium/src/ui/aura/mus/window_tree_host_mus_delegate.h" xlink:title="aura::WindowTreeHostMusDelegate">
<polygon fill="none" stroke="blue" points="741,-843 523,-843 523,-807 741,-807 741,-843"/>
<text text-anchor="middle" x="632" y="-821.3" font-family="Times,serif" font-size="14.00" fill="blue">aura::WindowTreeHostMusDelegate</text>
</a>
</g>
</g>
<!-- aura_WindowTreeHostMus&#45;&gt;aura_WindowTreeHostMusDelegate -->
<g id="edge19" class="edge"><title>aura_WindowTreeHostMus&#45;&gt;aura_WindowTreeHostMusDelegate</title>
<g id="a_edge19"><a xlink:title="delegate_">
<path fill="none" stroke="black" d="M707.287,-879.994C694.888,-871.102 679.494,-860.062 665.864,-850.286"/>
<polygon fill="black" stroke="black" points="665.614,-850.107 658.407,-849.861 655.863,-843.114 663.07,-843.36 665.614,-850.107"/>
</a>
</g>
</g>
<!-- aura_WindowTreeClient -->
<g id="node26" class="node"><title>aura_WindowTreeClient</title>
<g id="a_node26"><a xlink:href="https://cs.chromium.org/chromium/src/ui/aura/mus/window_tree_client.h" xlink:title="aura::WindowTreeClient">
<polygon fill="none" stroke="red" points="491,-537 339,-537 339,-501 491,-501 491,-537"/>
<text text-anchor="middle" x="415" y="-515.3" font-family="Times,serif" font-size="14.00" fill="red">aura::WindowTreeClient</text>
</a>
</g>
</g>
<!-- aura_WindowTreeHostMusDelegate&#45;&gt;aura_WindowTreeClient -->
<g id="edge20" class="edge"><title>aura_WindowTreeHostMusDelegate&#45;&gt;aura_WindowTreeClient</title>
<g id="a_edge20"><a xlink:title="Inheritance">
<path fill="none" stroke="black" d="M571.873,-802.142C552.531,-790.992 536,-775.021 536,-753 536,-753 536,-753 536,-605 536,-571.498 504.557,-550.064 473.728,-537.1"/>
<polygon fill="none" stroke="black" points="570.433,-805.341 580.908,-806.931 573.711,-799.155 570.433,-805.341"/>
</a>
</g>
</g>
<!-- aura_WindowTreeHostPlatform&#45;&gt;ui_PlatformWindow -->
<g id="edge23" class="edge"><title>aura_WindowTreeHostPlatform&#45;&gt;ui_PlatformWindow</title>
<g id="a_edge23"><a xlink:title="window_">
<path fill="none" stroke="black" d="M511.939,-952.994C482.813,-943.099 445.858,-930.545 414.913,-920.033"/>
<polygon fill="black" stroke="black" points="414.739,-919.974 407.771,-921.831 403.377,-916.114 410.344,-914.256 414.739,-919.974"/>
</a>
</g>
</g>
<!-- aura_WindowTreeHostPlatform&#45;&gt;gfx_AcceleratedWidget -->
<g id="edge22" class="edge"><title>aura_WindowTreeHostPlatform&#45;&gt;gfx_AcceleratedWidget</title>
<g id="a_edge22"><a xlink:title="widget_">
<path fill="none" stroke="black" d="M554.738,-952.813C551.495,-945.138 547.588,-935.891 543.934,-927.244"/>
<polygon fill="black" stroke="black" points="543.866,-927.083 537.846,-923.113 539.195,-916.029 545.215,-919.999 543.866,-927.083"/>
</a>
</g>
</g>
<!-- aura_WindowTreeHostPlatform&#45;&gt;aura_WindowTreeHostMus -->
<g id="edge21" class="edge"><title>aura_WindowTreeHostPlatform&#45;&gt;aura_WindowTreeHostMus</title>
<g id="a_edge21"><a xlink:title="Inheritance">
<path fill="none" stroke="black" d="M611.793,-949.081C636.78,-938.584 666.667,-926.027 690.265,-916.114"/>
<polygon fill="none" stroke="black" points="610.343,-945.894 602.48,-952.994 613.055,-952.347 610.343,-945.894"/>
</a>
</g>
</g>
<!-- ui_PlatformWindowDelegate -->
<g id="node11" class="node"><title>ui_PlatformWindowDelegate</title>
<g id="a_node11"><a xlink:href="https://cs.chromium.org/chromium/src/ui/platform_window/platform_window_delegate.h" xlink:title="ui::PlatformWindowDelegate">
<polygon fill="none" stroke="blue" points="630,-1097 452,-1097 452,-1061 630,-1061 630,-1097"/>
<text text-anchor="middle" x="541" y="-1075.3" font-family="Times,serif" font-size="14.00" fill="blue">ui::PlatformWindowDelegate</text>
</a>
</g>
</g>
<!-- ui_PlatformWindowDelegate&#45;&gt;aura_WindowTreeHostPlatform -->
<g id="edge26" class="edge"><title>ui_PlatformWindowDelegate&#45;&gt;aura_WindowTreeHostPlatform</title>
<g id="a_edge26"><a xlink:title="Inheritance">
<path fill="none" stroke="black" d="M546.363,-1050.93C550.202,-1031.55 555.256,-1006.04 558.565,-989.341"/>
<polygon fill="none" stroke="black" points="542.884,-1050.48 544.374,-1060.97 549.751,-1051.84 542.884,-1050.48"/>
</a>
</g>
</g>
<!-- ui_ws_PlatformDisplayDefault -->
<g id="node14" class="node"><title>ui_ws_PlatformDisplayDefault</title>
<g id="a_node14"><a xlink:href="https://cs.chromium.org/chromium/src/services/ui/ws/platform_display_default.h" xlink:title="ui::ws::PlatformDisplayDefault">
<polygon fill="none" stroke="blue" points="447,-989 259,-989 259,-953 447,-953 447,-989"/>
<text text-anchor="middle" x="353" y="-967.3" font-family="Times,serif" font-size="14.00" fill="blue">ui::ws::PlatformDisplayDefault</text>
</a>
</g>
</g>
<!-- ui_PlatformWindowDelegate&#45;&gt;ui_ws_PlatformDisplayDefault -->
<g id="edge35" class="edge"><title>ui_PlatformWindowDelegate&#45;&gt;ui_ws_PlatformDisplayDefault</title>
<g id="a_edge35"><a xlink:title="Inheritance">
<path fill="none" stroke="black" d="M501.761,-1055.88C466.565,-1036.03 415.644,-1007.32 383.442,-989.164"/>
<polygon fill="none" stroke="black" points="500.365,-1059.11 510.795,-1060.97 503.803,-1053.01 500.365,-1059.11"/>
</a>
</g>
</g>
<!-- ui_ws_Display -->
<g id="node12" class="node"><title>ui_ws_Display</title>
<g id="a_node12"><a xlink:href="https://cs.chromium.org/chromium/src/services/ui/ws/display.h" xlink:title="ui::ws::Display">
<polygon fill="none" stroke="blue" points="834.5,-1170 735.5,-1170 735.5,-1134 834.5,-1134 834.5,-1170"/>
<text text-anchor="middle" x="785" y="-1148.3" font-family="Times,serif" font-size="14.00" fill="blue">ui::ws::Display</text>
</a>
</g>
</g>
<!-- ui_ws_PlatformDisplay -->
<g id="node13" class="node"><title>ui_ws_PlatformDisplay</title>
<g id="a_node13"><a xlink:href="https://cs.chromium.org/chromium/src/services/ui/ws/platform_display.h" xlink:title="ui::ws::PlatformDisplay">
<polygon fill="none" stroke="blue" points="431.5,-1097 284.5,-1097 284.5,-1061 431.5,-1061 431.5,-1097"/>
<text text-anchor="middle" x="358" y="-1075.3" font-family="Times,serif" font-size="14.00" fill="blue">ui::ws::PlatformDisplay</text>
</a>
</g>
</g>
<!-- ui_ws_Display&#45;&gt;ui_ws_PlatformDisplay -->
<g id="edge38" class="edge"><title>ui_ws_Display&#45;&gt;ui_ws_PlatformDisplay</title>
<g id="a_edge38"><a xlink:title="platform_display_">
<path fill="none" stroke="black" d="M735.336,-1143.81C670.97,-1134.34 554.973,-1116.8 443.496,-1097.03"/>
<polygon fill="black" stroke="black" points="443.494,-1097.03 436.885,-1099.92 431.68,-1094.93 438.289,-1092.04 443.494,-1097.03"/>
</a>
</g>
</g>
<!-- ui_ws_DisplayBinding -->
<g id="node40" class="node"><title>ui_ws_DisplayBinding</title>
<g id="a_node40"><a xlink:href="https://cs.chromium.org/chromium/src/services/ui/ws/display_binding.h" xlink:title="ui::ws::DisplayBinding">
<polygon fill="none" stroke="brown" points="1068.5,-1043 925.5,-1043 925.5,-1007 1068.5,-1007 1068.5,-1043"/>
<text text-anchor="middle" x="997" y="-1021.3" font-family="Times,serif" font-size="14.00" fill="brown">ui::ws::DisplayBinding</text>
</a>
</g>
</g>
<!-- ui_ws_Display&#45;&gt;ui_ws_DisplayBinding -->
<g id="edge43" class="edge"><title>ui_ws_Display&#45;&gt;ui_ws_DisplayBinding</title>
<g id="a_edge43"><a xlink:title="binding_">
<path fill="none" stroke="black" d="M814.033,-1133.88C851.196,-1111.97 915.745,-1073.91 957.396,-1049.35"/>
<polygon fill="black" stroke="black" points="957.641,-1049.21 960.778,-1042.71 967.978,-1043.11 964.841,-1049.61 957.641,-1049.21"/>
</a>
</g>
</g>
<!-- ui_ws_PlatformDisplay&#45;&gt;ui_ws_PlatformDisplayDefault -->
<g id="edge36" class="edge"><title>ui_ws_PlatformDisplay&#45;&gt;ui_ws_PlatformDisplayDefault</title>
<g id="a_edge36"><a xlink:title="Inheritance">
<path fill="none" stroke="black" d="M356.723,-1050.93C355.809,-1031.55 354.606,-1006.04 353.818,-989.341"/>
<polygon fill="none" stroke="black" points="353.229,-1051.15 357.197,-1060.97 360.222,-1050.82 353.229,-1051.15"/>
</a>
</g>
</g>
<!-- ui_ws_PlatformDisplayDefault&#45;&gt;ui_PlatformWindow -->
<g id="edge37" class="edge"><title>ui_ws_PlatformDisplayDefault&#45;&gt;ui_PlatformWindow</title>
<g id="a_edge37"><a xlink:title="platform_window_">
<path fill="none" stroke="black" d="M353,-952.813C353,-945.4 353,-936.52 353,-928.131"/>
<polygon fill="black" stroke="black" points="353,-928.029 349,-922.029 353,-916.029 357,-922.029 353,-928.029"/>
</a>
</g>
</g>
<!-- ui_ws_PlatformDisplayDelegate -->
<g id="node15" class="node"><title>ui_ws_PlatformDisplayDelegate</title>
<g id="a_node15"><a xlink:href="https://cs.chromium.org/chromium/src/services/ui/ws/platform_display_delegate.h" xlink:title="ui::ws::PlatformDisplayDelegate">
<polygon fill="none" stroke="blue" points="677.5,-1257 482.5,-1257 482.5,-1221 677.5,-1221 677.5,-1257"/>
<text text-anchor="middle" x="580" y="-1235.3" font-family="Times,serif" font-size="14.00" fill="blue">ui::ws::PlatformDisplayDelegate</text>
</a>
</g>
</g>
<!-- ui_ws_PlatformDisplayDelegate&#45;&gt;ui_ws_Display -->
<g id="edge40" class="edge"><title>ui_ws_PlatformDisplayDelegate&#45;&gt;ui_ws_Display</title>
<g id="a_edge40"><a xlink:title="Inheritance">
<path fill="none" stroke="black" d="M631.008,-1216.85C665.852,-1202.4 711.42,-1183.51 743.927,-1170.03"/>
<polygon fill="none" stroke="black" points="629.382,-1213.74 621.485,-1220.8 632.063,-1220.2 629.382,-1213.74"/>
</a>
</g>
</g>
<!-- ui_mojom_WindowTreeHost -->
<g id="node16" class="node"><title>ui_mojom_WindowTreeHost</title>
<g id="a_node16"><a xlink:href="https://cs.chromium.org/chromium/src/services/ui/window_tree_host.mojom" xlink:title="ui::mojom::WindowTreeHost">
<polygon fill="none" stroke="brown" points="874.5,-1257 695.5,-1257 695.5,-1221 874.5,-1221 874.5,-1257"/>
<text text-anchor="middle" x="785" y="-1235.3" font-family="Times,serif" font-size="14.00" fill="brown">ui::mojom::WindowTreeHost</text>
</a>
</g>
</g>
<!-- ui_mojom_WindowTreeHost&#45;&gt;ui_ws_Display -->
<g id="edge41" class="edge"><title>ui_mojom_WindowTreeHost&#45;&gt;ui_ws_Display</title>
<g id="a_edge41"><a xlink:title="Implementation">
<path fill="none" stroke="black" stroke-dasharray="5,2" d="M785,-1210.73C785,-1197.42 785,-1181.81 785,-1170.18"/>
<polygon fill="none" stroke="black" points="781.5,-1210.8 785,-1220.8 788.5,-1210.8 781.5,-1210.8"/>
</a>
</g>
</g>
<!-- aura_WindowDelegate -->
<g id="node18" class="node"><title>aura_WindowDelegate</title>
<g id="a_node18"><a xlink:href="https://cs.chromium.org/chromium/src/ui/aura/window_delegate.h" xlink:title="aura::WindowDelegate">
<polygon fill="none" stroke="darkorange" points="898.5,-342 755.5,-342 755.5,-306 898.5,-306 898.5,-342"/>
<text text-anchor="middle" x="827" y="-320.3" font-family="Times,serif" font-size="14.00" fill="darkorange">aura::WindowDelegate</text>
</a>
</g>
</g>
<!-- aura_Window&#45;&gt;aura_WindowDelegate -->
<g id="edge2" class="edge"><title>aura_Window&#45;&gt;aura_WindowDelegate</title>
<g id="a_edge2"><a xlink:title="delegate_">
<path fill="none" stroke="black" d="M837.072,-413.969C835.255,-397.916 832.493,-373.526 830.322,-354.34"/>
<polygon fill="black" stroke="black" points="830.313,-354.264 825.663,-348.753 828.963,-342.341 833.613,-347.853 830.313,-354.264"/>
</a>
</g>
</g>
<!-- aura_WindowObserver -->
<g id="node19" class="node"><title>aura_WindowObserver</title>
<g id="a_node19"><a xlink:href="https://cs.chromium.org/chromium/src/ui/aura/window_observer.h" xlink:title="aura::WindowObserver">
<polygon fill="none" stroke="darkorange" points="737,-342 593,-342 593,-306 737,-306 737,-342"/>
<text text-anchor="middle" x="665" y="-320.3" font-family="Times,serif" font-size="14.00" fill="darkorange">aura::WindowObserver</text>
</a>
</g>
</g>
<!-- aura_Window&#45;&gt;aura_WindowObserver -->
<g id="edge3" class="edge"><title>aura_Window&#45;&gt;aura_WindowObserver</title>
<g id="a_edge3"><a xlink:title="observers_">
<path fill="none" stroke="black" d="M800.114,-413.821C788.905,-408.479 776.793,-402.323 766,-396 741.351,-381.561 714.992,-362.913 695.385,-348.351"/>
<polygon fill="black" stroke="black" points="687.151,-342.182 697.853,-344.577 691.153,-345.18 695.154,-348.178 695.154,-348.178 695.154,-348.178 691.153,-345.18 692.456,-351.78 687.151,-342.182 687.151,-342.182"/>
</a>
</g>
<text text-anchor="middle" x="796.5" y="-374.3" font-family="Times,serif" font-size="14.00"> has list of </text>
</g>
<!-- aura_WindowPort -->
<g id="node21" class="node"><title>aura_WindowPort</title>
<g id="a_node21"><a xlink:href="https://cs.chromium.org/chromium/src/ui/aura/window_port.h" xlink:title="aura::WindowPort">
<polygon fill="none" stroke="darkorange" points="574.5,-342 457.5,-342 457.5,-306 574.5,-306 574.5,-342"/>
<text text-anchor="middle" x="516" y="-320.3" font-family="Times,serif" font-size="14.00" fill="darkorange">aura::WindowPort</text>
</a>
</g>
</g>
<!-- aura_Window&#45;&gt;aura_WindowPort -->
<g id="edge4" class="edge"><title>aura_Window&#45;&gt;aura_WindowPort</title>
<g id="a_edge4"><a xlink:title="port_">
<path fill="none" stroke="black" d="M791.466,-416.625C788.268,-415.719 785.09,-414.836 782,-414 749.327,-405.16 740.372,-405.886 708,-396 660.409,-381.466 607.442,-361.591 569.216,-346.566"/>
<polygon fill="black" stroke="black" points="569.007,-346.483 561.956,-347.996 557.848,-342.07 564.898,-340.557 569.007,-346.483"/>
</a>
</g>
</g>
<!-- aura_WindowMus -->
<g id="node20" class="node"><title>aura_WindowMus</title>
<g id="a_node20"><a xlink:href="https://cs.chromium.org/chromium/src/ui/aura/mus/window_mus.h" xlink:title="aura::WindowMus">
<polygon fill="none" stroke="darkorange" points="545.5,-396 426.5,-396 426.5,-360 545.5,-360 545.5,-396"/>
<text text-anchor="middle" x="486" y="-374.3" font-family="Times,serif" font-size="14.00" fill="darkorange">aura::WindowMus</text>
</a>
</g>
</g>
<!-- aura_WindowPortMus -->
<g id="node23" class="node"><title>aura_WindowPortMus</title>
<g id="a_node23"><a xlink:href="https://cs.chromium.org/chromium/src/ui/aura/mus/window_port_mus.h" xlink:title="aura::WindowPortMus">
<polygon fill="none" stroke="darkorange" points="719,-269 577,-269 577,-233 719,-233 719,-269"/>
<text text-anchor="middle" x="648" y="-247.3" font-family="Times,serif" font-size="14.00" fill="darkorange">aura::WindowPortMus</text>
</a>
</g>
</g>
<!-- aura_WindowMus&#45;&gt;aura_WindowPortMus -->
<g id="edge6" class="edge"><title>aura_WindowMus&#45;&gt;aura_WindowPortMus</title>
<g id="a_edge6"><a xlink:title="Inheritance">
<path fill="none" stroke="black" d="M455.209,-352.279C452.722,-349.082 450.568,-345.642 449,-342 442.672,-327.304 439.28,-318.709 449,-306 453.112,-300.624 521.829,-282.751 577.377,-269.024"/>
<polygon fill="none" stroke="black" points="452.624,-354.639 461.931,-359.702 457.813,-349.94 452.624,-354.639"/>
</a>
</g>
</g>
<!-- aura_WindowPortLocal -->
<g id="node22" class="node"><title>aura_WindowPortLocal</title>
<g id="a_node22"><a xlink:href="https://cs.chromium.org/chromium/src/ui/aura/window_port_local.h" xlink:title="aura::WindowPortLocal">
<polygon fill="none" stroke="darkorange" points="559,-269 411,-269 411,-233 559,-233 559,-269"/>
<text text-anchor="middle" x="485" y="-247.3" font-family="Times,serif" font-size="14.00" fill="darkorange">aura::WindowPortLocal</text>
</a>
</g>
</g>
<!-- aura_WindowPort&#45;&gt;aura_WindowPortLocal -->
<g id="edge7" class="edge"><title>aura_WindowPort&#45;&gt;aura_WindowPortLocal</title>
<g id="a_edge7"><a xlink:title="Inheritance">
<path fill="none" stroke="black" d="M504.486,-296.63C500.457,-287.402 496.042,-277.29 492.435,-269.029"/>
<polygon fill="none" stroke="black" points="501.287,-298.049 508.496,-305.813 507.702,-295.248 501.287,-298.049"/>
</a>
</g>
</g>
<!-- aura_WindowPort&#45;&gt;aura_WindowPortMus -->
<g id="edge8" class="edge"><title>aura_WindowPort&#45;&gt;aura_WindowPortMus</title>
<g id="a_edge8"><a xlink:title="Inheritance">
<path fill="none" stroke="black" d="M556.447,-301.244C575.638,-290.922 598.239,-278.765 616.183,-269.114"/>
<polygon fill="none" stroke="black" points="554.766,-298.174 547.617,-305.994 558.082,-304.339 554.766,-298.174"/>
</a>
</g>
</g>
<!-- aura_WindowPortMus&#45;&gt;aura_WindowTreeClient -->
<g id="edge9" class="edge"><title>aura_WindowPortMus&#45;&gt;aura_WindowTreeClient</title>
<g id="a_edge9"><a xlink:title="window_tree_client_">
<path fill="none" stroke="black" d="M719.164,-256.897C787.78,-263.276 884.577,-277.213 908,-306 948.532,-355.815 930.684,-395.949 896,-450 880.604,-473.992 868.138,-474.271 841,-483 780.352,-502.507 609.422,-511.592 503.427,-515.46"/>
<polygon fill="black" stroke="black" points="503.145,-515.47 497.291,-519.68 491.153,-515.895 497.007,-511.685 503.145,-515.47"/>
</a>
</g>
</g>
<!-- aura_WindowManagerClient -->
<g id="node24" class="node"><title>aura_WindowManagerClient</title>
<g id="a_node24"><a xlink:href="https://cs.chromium.org/chromium/src/ui/aura/mus/window_manager_delegate.h" xlink:title="aura::WindowManagerClient">
<polygon fill="none" stroke="red" points="387,-624 211,-624 211,-588 387,-588 387,-624"/>
<text text-anchor="middle" x="299" y="-602.3" font-family="Times,serif" font-size="14.00" fill="red">aura::WindowManagerClient</text>
</a>
</g>
</g>
<!-- aura_WindowManagerClient&#45;&gt;aura_WindowTreeClient -->
<g id="edge5" class="edge"><title>aura_WindowManagerClient&#45;&gt;aura_WindowTreeClient</title>
<g id="a_edge5"><a xlink:title="Inheritance">
<path fill="none" stroke="black" d="M330.655,-581.805C349.891,-567.709 374.038,-550.015 391.561,-537.175"/>
<polygon fill="none" stroke="black" points="328.472,-579.065 322.474,-587.799 332.609,-584.712 328.472,-579.065"/>
</a>
</g>
</g>
<!-- aura_WindowManagerDelegate -->
<g id="node25" class="node"><title>aura_WindowManagerDelegate</title>
<g id="a_node25"><a xlink:href="https://cs.chromium.org/chromium/src/services/ui/public/cpp/window_manager_delegate.h" xlink:title="aura::WindowManagerDelegate">
<polygon fill="none" stroke="red" points="296.5,-450 105.5,-450 105.5,-414 296.5,-414 296.5,-450"/>
<text text-anchor="middle" x="201" y="-428.3" font-family="Times,serif" font-size="14.00" fill="red">aura::WindowManagerDelegate</text>
</a>
</g>
</g>
<!-- aura_WindowTreeClient&#45;&gt;aura_Window -->
<g id="edge10" class="edge"><title>aura_WindowTreeClient&#45;&gt;aura_Window</title>
<g id="a_edge10"><a xlink:title="embedded_windows_">
<path fill="none" stroke="black" d="M491.29,-513.745C550.291,-509.27 633.674,-500.351 705,-483 734.417,-475.844 766.208,-464.163 791.44,-453.89"/>
<polygon fill="black" stroke="black" points="800.77,-450.035 793.247,-458.013 796.149,-451.944 791.528,-453.854 791.528,-453.854 791.528,-453.854 796.149,-451.944 789.809,-449.695 800.77,-450.035 800.77,-450.035"/>
</a>
</g>
<text text-anchor="middle" x="795" y="-471.8" font-family="Times,serif" font-size="14.00"> embeds set of </text>
</g>
<!-- aura_WindowTreeClient&#45;&gt;aura_WindowMus -->
<g id="edge12" class="edge"><title>aura_WindowTreeClient&#45;&gt;aura_WindowMus</title>
<g id="a_edge12"><a xlink:title="roots_">
<path fill="none" stroke="black" d="M463.043,-500.902C485.84,-490.082 510.907,-473.599 524,-450 531.762,-436.009 530.425,-428.653 524,-414 522.385,-410.316 520.169,-406.849 517.614,-403.636"/>
<polygon fill="black" stroke="black" points="510.708,-396.192 520.808,-400.463 514.109,-399.858 517.509,-403.523 517.509,-403.523 517.509,-403.523 514.109,-399.858 514.21,-406.584 510.708,-396.192 510.708,-396.192"/>
</a>
</g>
<text text-anchor="middle" x="545" y="-471.8" font-family="Times,serif" font-size="14.00"> has roots of </text>
</g>
<!-- aura_WindowTreeClient&#45;&gt;aura_WindowManagerDelegate -->
<g id="edge11" class="edge"><title>aura_WindowTreeClient&#45;&gt;aura_WindowManagerDelegate</title>
<g id="a_edge11"><a xlink:title="window_manager_delegate_">
<path fill="none" stroke="black" d="M371.951,-500.901C338.36,-487.559 291.487,-468.941 255.317,-454.575"/>
<polygon fill="black" stroke="black" points="255.132,-454.501 248.08,-456.004 243.98,-450.071 251.033,-448.569 255.132,-454.501"/>
</a>
</g>
</g>
<!-- aura_WindowTreeClientDelegate -->
<g id="node27" class="node"><title>aura_WindowTreeClientDelegate</title>
<g id="a_node27"><a xlink:href="https://cs.chromium.org/chromium/src/services/ui/aura/mus/window_tree_client_delegate.h" xlink:title="aura::WindowTreeClientDelegate">
<polygon fill="none" stroke="red" points="515,-450 315,-450 315,-414 515,-414 515,-450"/>
<text text-anchor="middle" x="415" y="-428.3" font-family="Times,serif" font-size="14.00" fill="red">aura::WindowTreeClientDelegate</text>
</a>
</g>
</g>
<!-- aura_WindowTreeClient&#45;&gt;aura_WindowTreeClientDelegate -->
<g id="edge13" class="edge"><title>aura_WindowTreeClient&#45;&gt;aura_WindowTreeClientDelegate</title>
<g id="a_edge13"><a xlink:title="delegate_">
<path fill="none" stroke="black" d="M415,-500.799C415,-489.739 415,-475.084 415,-462.23"/>
<polygon fill="black" stroke="black" points="415,-462.175 411,-456.175 415,-450.175 419,-456.175 415,-462.175"/>
</a>
</g>
</g>
<!-- aura_WindowTreeClientObserver -->
<g id="node28" class="node"><title>aura_WindowTreeClientObserver</title>
<g id="a_node28"><a xlink:href="https://cs.chromium.org/chromium/src/ui/aura/mus/window_tree_client_observer.h" xlink:title="aura::WindowTreeClientObserver">
<polygon fill="none" stroke="red" points="773,-450 571,-450 571,-414 773,-414 773,-450"/>
<text text-anchor="middle" x="672" y="-428.3" font-family="Times,serif" font-size="14.00" fill="red">aura::WindowTreeClientObserver</text>
</a>
</g>
</g>
<!-- aura_WindowTreeClient&#45;&gt;aura_WindowTreeClientObserver -->
<g id="edge14" class="edge"><title>aura_WindowTreeClient&#45;&gt;aura_WindowTreeClientObserver</title>
<g id="a_edge14"><a xlink:title="observers_">
<path fill="none" stroke="black" d="M491.44,-515.416C531.214,-511.524 579.617,-502.664 619,-483 631.202,-476.908 642.526,-467.079 651.548,-457.741"/>
<polygon fill="black" stroke="black" points="658.554,-450.106 655.109,-460.516 655.174,-453.79 651.793,-457.474 651.793,-457.474 651.793,-457.474 655.174,-453.79 648.477,-454.432 658.554,-450.106 658.554,-450.106"/>
</a>
</g>
<text text-anchor="middle" x="670.5" y="-471.8" font-family="Times,serif" font-size="14.00"> has list of </text>
</g>
<!-- ui_mojom_WindowTree -->
<g id="node32" class="node"><title>ui_mojom_WindowTree</title>
<g id="a_node32"><a xlink:href="https://cs.chromium.org/chromium/src/services/ui/public/interfaces/window_tree.mojom" xlink:title="ui::mojom::WindowTree">
<polygon fill="none" stroke="deeppink" points="154,-269 0,-269 0,-233 154,-233 154,-269"/>
<text text-anchor="middle" x="77" y="-247.3" font-family="Times,serif" font-size="14.00" fill="deeppink">ui::mojom::WindowTree</text>
</a>
</g>
</g>
<!-- aura_WindowTreeClient&#45;&gt;ui_mojom_WindowTree -->
<g id="edge15" class="edge"><title>aura_WindowTreeClient&#45;&gt;ui_mojom_WindowTree</title>
<g id="a_edge15"><a xlink:title="tree_ptr_">
<path fill="none" stroke="black" d="M338.679,-511.966C254.767,-503.638 127.61,-485.449 96,-450 53.7308,-402.598 62.389,-321.113 70.6165,-278.981"/>
<polygon fill="black" stroke="black" points="72.6677,-269.163 75.0276,-279.872 71.6452,-274.057 70.6227,-278.951 70.6227,-278.951 70.6227,-278.951 71.6452,-274.057 66.2178,-278.031 72.6677,-269.163 72.6677,-269.163"/>
</a>
</g>
<text text-anchor="middle" x="115" y="-374.3" font-family="Times,serif" font-size="14.00"> is connected to </text>
</g>
<!-- ui_mojom_WindowManager -->
<g id="node29" class="node"><title>ui_mojom_WindowManager</title>
<g id="a_node29"><a xlink:href="https://cs.chromium.org/chromium/src/services/ui/public/interfaces/window_manager.mojom" xlink:title="ui::mojom::WindowManager">
<polygon fill="none" stroke="deeppink" points="742,-697 564,-697 564,-661 742,-661 742,-697"/>
<text text-anchor="middle" x="653" y="-675.3" font-family="Times,serif" font-size="14.00" fill="deeppink">ui::mojom::WindowManager</text>
</a>
</g>
</g>
<!-- ui_mojom_WindowManager&#45;&gt;aura_WindowTreeClient -->
<g id="edge28" class="edge"><title>ui_mojom_WindowManager&#45;&gt;aura_WindowTreeClient</title>
<g id="a_edge28"><a xlink:title="Implementation">
<path fill="none" stroke="black" stroke-dasharray="5,2" d="M638.034,-651.891C620.526,-623.72 588.921,-579.601 550,-555 532.399,-543.875 511.388,-536.274 491.245,-531.086"/>
<polygon fill="none" stroke="black" points="635.245,-654.043 643.421,-660.782 641.232,-650.416 635.245,-654.043"/>
</a>
</g>
</g>
<!-- ui_mojom_WindowTreeClient -->
<g id="node30" class="node"><title>ui_mojom_WindowTreeClient</title>
<g id="a_node30"><a xlink:href="https://cs.chromium.org/chromium/src/services/ui/public/interfaces/window_tree.mojom" xlink:title="ui::mojom::WindowTreeClient">
<polygon fill="none" stroke="deeppink" points="508.5,-697 321.5,-697 321.5,-661 508.5,-661 508.5,-697"/>
<text text-anchor="middle" x="415" y="-675.3" font-family="Times,serif" font-size="14.00" fill="deeppink">ui::mojom::WindowTreeClient</text>
</a>
</g>
</g>
<!-- ui_mojom_WindowTreeClient&#45;&gt;aura_WindowTreeClient -->
<g id="edge31" class="edge"><title>ui_mojom_WindowTreeClient&#45;&gt;aura_WindowTreeClient</title>
<g id="a_edge31"><a xlink:title="Implementation">
<path fill="none" stroke="black" stroke-dasharray="5,2" d="M415,-650.594C415,-617.97 415,-564.481 415,-537.188"/>
<polygon fill="none" stroke="black" points="411.5,-650.79 415,-660.79 418.5,-650.79 411.5,-650.79"/>
</a>
</g>
</g>
<!-- ui_mojom_WindowManagerClient -->
<g id="node31" class="node"><title>ui_mojom_WindowManagerClient</title>
<g id="a_node31"><a xlink:href="https://cs.chromium.org/chromium/src/services/ui/public/interfaces/window_manager.mojom" xlink:title="ui::mojom::WindowManagerClient">
<polygon fill="none" stroke="green" points="234.5,-123 23.5,-123 23.5,-87 234.5,-87 234.5,-123"/>
<text text-anchor="middle" x="129" y="-101.3" font-family="Times,serif" font-size="14.00" fill="green">ui::mojom::WindowManagerClient</text>
</a>
</g>
</g>
<!-- ui_ws_WindowTree -->
<g id="node36" class="node"><title>ui_ws_WindowTree</title>
<g id="a_node36"><a xlink:href="https://cs.chromium.org/chromium/src/services/ui/ws/window_tree.h" xlink:title="ui::ws::WindowTree">
<polygon fill="none" stroke="green" points="500.5,-36 371.5,-36 371.5,-0 500.5,-0 500.5,-36"/>
<text text-anchor="middle" x="436" y="-14.3" font-family="Times,serif" font-size="14.00" fill="green">ui::ws::WindowTree</text>
</a>
</g>
</g>
<!-- ui_mojom_WindowManagerClient&#45;&gt;ui_ws_WindowTree -->
<g id="edge29" class="edge"><title>ui_mojom_WindowManagerClient&#45;&gt;ui_ws_WindowTree</title>
<g id="a_edge29"><a xlink:title="Implementation">
<path fill="none" stroke="black" stroke-dasharray="5,2" d="M173.698,-82.7445C195.932,-72.8548 223.452,-61.6212 249,-54 288.88,-42.1033 334.804,-33.4387 371.161,-27.7066"/>
<polygon fill="none" stroke="black" points="172.192,-79.5845 164.515,-86.8862 175.069,-85.9656 172.192,-79.5845"/>
</a>
</g>
</g>
<!-- ui_mojom_WindowTree&#45;&gt;ui_ws_WindowTree -->
<g id="edge30" class="edge"><title>ui_mojom_WindowTree&#45;&gt;ui_ws_WindowTree</title>
<g id="a_edge30"><a xlink:title="Implementation">
<path fill="none" stroke="black" stroke-dasharray="5,2" d="M107.164,-226.821C162.11,-184.676 274.651,-98.7414 294,-87 326.715,-67.1478 366.116,-48.6721 395.106,-36.0045"/>
<polygon fill="none" stroke="black" points="104.98,-224.085 99.1773,-232.95 109.241,-229.638 104.98,-224.085"/>
</a>
</g>
</g>
<!-- ui_mojom_WindowManagerWindowTreeFactory -->
<g id="node33" class="node"><title>ui_mojom_WindowManagerWindowTreeFactory</title>
<g id="a_node33"><a xlink:href="https://cs.chromium.org/chromium/src/services/ui/public/interfaces/window_manager_window_tree_factory.mojom" xlink:title="ui::mojom::WindowManagerWindowTreeFactory">
<polygon fill="none" stroke="green" points="581.5,-196 290.5,-196 290.5,-160 581.5,-160 581.5,-196"/>
<text text-anchor="middle" x="436" y="-174.3" font-family="Times,serif" font-size="14.00" fill="green">ui::mojom::WindowManagerWindowTreeFactory</text>
</a>
</g>
</g>
<!-- ui_ws_WindowManagerWindowTreeFactory -->
<g id="node34" class="node"><title>ui_ws_WindowManagerWindowTreeFactory</title>
<g id="a_node34"><a xlink:href="https://cs.chromium.org/chromium/src/services/ui/ws/window_manager_window_tree_factory.h" xlink:title="ui::ws::WindowManagerWindowTreeFactory">
<polygon fill="none" stroke="green" points="569,-123 303,-123 303,-87 569,-87 569,-123"/>
<text text-anchor="middle" x="436" y="-101.3" font-family="Times,serif" font-size="14.00" fill="green">ui::ws::WindowManagerWindowTreeFactory</text>
</a>
</g>
</g>
<!-- ui_mojom_WindowManagerWindowTreeFactory&#45;&gt;ui_ws_WindowManagerWindowTreeFactory -->
<g id="edge1" class="edge"><title>ui_mojom_WindowManagerWindowTreeFactory&#45;&gt;ui_ws_WindowManagerWindowTreeFactory</title>
<g id="a_edge1"><a xlink:title="Implementation">
<path fill="none" stroke="black" stroke-dasharray="5,2" d="M436,-149.753C436,-140.765 436,-131.029 436,-123.029"/>
<polygon fill="none" stroke="black" points="432.5,-149.813 436,-159.813 439.5,-149.813 432.5,-149.813"/>
</a>
</g>
</g>
<!-- ui_ws_WindowManagerWindowTreeFactory&#45;&gt;ui_ws_WindowTree -->
<g id="edge33" class="edge"><title>ui_ws_WindowManagerWindowTreeFactory&#45;&gt;ui_ws_WindowTree</title>
<g id="a_edge33"><a xlink:title="CreateWindowTree">
<path fill="none" stroke="black" d="M436,-86.799C436,-75.1626 436,-59.5479 436,-46.2368"/>
<polygon fill="black" stroke="black" points="436,-36.1754 440.5,-46.1754 436,-41.1754 436,-46.1754 436,-46.1754 436,-46.1754 436,-41.1754 431.5,-46.1755 436,-36.1754 436,-36.1754"/>
</a>
</g>
<text text-anchor="middle" x="459" y="-57.8" font-family="Times,serif" font-size="14.00"> creates </text>
</g>
<!-- ui_mojom_WindowTreeFactory -->
<g id="node35" class="node"><title>ui_mojom_WindowTreeFactory</title>
<g id="a_node35"><a xlink:href="https://cs.chromium.org/chromium/src/services/ui/public/interfaces/window_tree.mojom" xlink:title="ui::mojom::WindowTreeFactory">
<polygon fill="none" stroke="green" points="794.5,-196 599.5,-196 599.5,-160 794.5,-160 794.5,-196"/>
<text text-anchor="middle" x="697" y="-174.3" font-family="Times,serif" font-size="14.00" fill="green">ui::mojom::WindowTreeFactory</text>
</a>
</g>
</g>
<!-- ui_ws_WindowTreeFactory -->
<g id="node37" class="node"><title>ui_ws_WindowTreeFactory</title>
<g id="a_node37"><a xlink:href="https://cs.chromium.org/chromium/src/services/ui/ws/window_tree_factory.h" xlink:title="ui::ws::WindowTreeFactory">
<polygon fill="none" stroke="green" points="770,-123 600,-123 600,-87 770,-87 770,-123"/>
<text text-anchor="middle" x="685" y="-101.3" font-family="Times,serif" font-size="14.00" fill="green">ui::ws::WindowTreeFactory</text>
</a>
</g>
</g>
<!-- ui_mojom_WindowTreeFactory&#45;&gt;ui_ws_WindowTreeFactory -->
<g id="edge32" class="edge"><title>ui_mojom_WindowTreeFactory&#45;&gt;ui_ws_WindowTreeFactory</title>
<g id="a_edge32"><a xlink:title="Implementation">
<path fill="none" stroke="black" stroke-dasharray="5,2" d="M692.395,-149.753C690.876,-140.765 689.23,-131.029 687.878,-123.029"/>
<polygon fill="none" stroke="black" points="688.977,-150.536 694.095,-159.813 695.88,-149.369 688.977,-150.536"/>
</a>
</g>
</g>
<!-- ui_ws_WindowTreeFactory&#45;&gt;ui_ws_WindowTree -->
<g id="edge34" class="edge"><title>ui_ws_WindowTreeFactory&#45;&gt;ui_ws_WindowTree</title>
<g id="a_edge34"><a xlink:title="CreateWindowTree">
<path fill="none" stroke="black" d="M634.911,-86.9012C594.726,-73.1836 538.205,-53.8893 495.678,-39.3721"/>
<polygon fill="black" stroke="black" points="486.009,-36.0714 496.927,-35.0434 490.741,-37.6868 495.473,-39.3021 495.473,-39.3021 495.473,-39.3021 490.741,-37.6868 494.019,-43.5608 486.009,-36.0714 486.009,-36.0714"/>
</a>
</g>
<text text-anchor="middle" x="598" y="-57.8" font-family="Times,serif" font-size="14.00"> creates </text>
</g>
<!-- ui_ws_WindowTreeHostFactory -->
<g id="node38" class="node"><title>ui_ws_WindowTreeHostFactory</title>
<g id="a_node38"><a xlink:href="https://cs.chromium.org/chromium/src/services/ui/ws/window_tree_host_factory.h" xlink:title="ui::ws::WindowTreeHostFactory">
<polygon fill="none" stroke="brown" points="1089,-1257 893,-1257 893,-1221 1089,-1221 1089,-1257"/>
<text text-anchor="middle" x="991" y="-1235.3" font-family="Times,serif" font-size="14.00" fill="brown">ui::ws::WindowTreeHostFactory</text>
</a>
</g>
</g>
<!-- ui_ws_WindowTreeHostFactory&#45;&gt;ui_ws_Display -->
<g id="edge42" class="edge"><title>ui_ws_WindowTreeHostFactory&#45;&gt;ui_ws_Display</title>
<g id="a_edge42"><a xlink:title="CreateWindowTreeHost">
<path fill="none" stroke="black" d="M949.313,-1220.8C916.537,-1207.27 870.737,-1188.38 835.815,-1173.97"/>
<polygon fill="black" stroke="black" points="826.273,-1170.03 837.234,-1169.68 830.895,-1171.94 835.517,-1173.84 835.517,-1173.84 835.517,-1173.84 830.895,-1171.94 833.801,-1178 826.273,-1170.03 826.273,-1170.03"/>
</a>
</g>
<text text-anchor="middle" x="923" y="-1191.8" font-family="Times,serif" font-size="14.00"> creates </text>
</g>
<!-- ui_mojom_WindowTreeHostFactory -->
<g id="node39" class="node"><title>ui_mojom_WindowTreeHostFactory</title>
<g id="a_node39"><a xlink:href="https://cs.chromium.org/chromium/src/services/ui/public/interfaces/window_tree_host.mojom" xlink:title="ui::mojom::WindowTreeHostFactory">
<polygon fill="none" stroke="brown" points="1101.5,-1330 880.5,-1330 880.5,-1294 1101.5,-1294 1101.5,-1330"/>
<text text-anchor="middle" x="991" y="-1308.3" font-family="Times,serif" font-size="14.00" fill="brown">ui::mojom::WindowTreeHostFactory</text>
</a>
</g>
</g>
<!-- ui_mojom_WindowTreeHostFactory&#45;&gt;ui_ws_WindowTreeHostFactory -->
<g id="edge39" class="edge"><title>ui_mojom_WindowTreeHostFactory&#45;&gt;ui_ws_WindowTreeHostFactory</title>
<g id="a_edge39"><a xlink:title="Implementation">
<path fill="none" stroke="black" stroke-dasharray="5,2" d="M991,-1283.75C991,-1274.77 991,-1265.03 991,-1257.03"/>
<polygon fill="none" stroke="black" points="987.5,-1283.81 991,-1293.81 994.5,-1283.81 987.5,-1283.81"/>
</a>
</g>
</g>
<!-- ui_ws_DisplayBinding&#45;&gt;ui_ws_WindowTree -->
<g id="edge44" class="edge"><title>ui_ws_DisplayBinding&#45;&gt;ui_ws_WindowTree</title>
<g id="a_edge44"><a xlink:title="CreateWindowTree">
<path fill="none" stroke="black" d="M1000.42,-1006.68C1003.65,-988.805 1008,-960.066 1008,-935 1008,-935 1008,-935 1008,-104 1008,-54.3161 665.993,-30.6456 510.893,-22.4655"/>
<polygon fill="black" stroke="black" points="500.504,-21.926 510.724,-17.9507 505.497,-22.1854 510.49,-22.4447 510.49,-22.4447 510.49,-22.4447 505.497,-22.1854 510.257,-26.9386 500.504,-21.926 500.504,-21.926"/>
</a>
</g>
<text text-anchor="middle" x="1031" y="-558.8" font-family="Times,serif" font-size="14.00"> creates </text>
</g>
</g>
</svg>
